  0
SECTION
  2
HEADER
  9
$ACADVER
  1
AC1015
  9
$ACADMAINTVER
 70
     6
  9
$DWGCODEPAGE
  3
ANSI_1252
  9
$INSBASE
 10
0.0
 20
0.0
 30
0.0
  9
$EXTMIN
 10
-1.8667811484
 20
-34.1873893054
 30
0.0
  9
$EXTMAX
 10
128.2406280506
 20
18.1292738864
 30
0.0
  9
$LIMMIN
 10
0.0
 20
0.0
  9
$LIMMAX
 10
420.0
 20
297.0
  9
$ORTHOMODE
 70
     0
  9
$REGENMODE
 70
     1
  9
$FILLMODE
 70
     1
  9
$QTEXTMODE
 70
     0
  9
$MIRRTEXT
 70
     1
  9
$LTSCALE
 40
1.0
  9
$ATTMODE
 70
     1
  9
$TEXTSIZE
 40
3.5
  9
$TRACEWID
 40
1.0
  9
$TEXTSTYLE
  7
Standard
  9
$CLAYER
  8
0
  9
$CELTYPE
  6
ByLayer
  9
$CECOLOR
 62
   256
  9
$CELTSCALE
 40
1.0
  9
$DISPSILH
 70
     0
  9
$DIMSCALE
 40
1.0
  9
$DIMASZ
 40
6.0
  9
$DIMEXO
 40
1.0
  9
$DIMDLI
 40
3.75
  9
$DIMRND
 40
0.0
  9
$DIMDLE
 40
0.0
  9
$DIMEXE
 40
1.0
  9
$DIMTP
 40
0.0
  9
$DIMTM
 40
0.0
  9
$DIMTXT
 40
3.5
  9
$DIMCEN
 40
2.5
  9
$DIMTSZ
 40
0.0
  9
$DIMTOL
 70
     0
  9
$DIMLIM
 70
     0
  9
$DIMTIH
 70
     1
  9
$DIMTOH
 70
     1
  9
$DIMSE1
 70
     0
  9
$DIMSE2
 70
     0
  9
$DIMTAD
 70
     1
  9
$DIMZIN
 70
     0
  9
$DIMBLK
  1

  9
$DIMASO
 70
     1
  9
$DIMSHO
 70
     1
  9
$DIMPOST
  1

  9
$DIMAPOST
  1

  9
$DIMALT
 70
     0
  9
$DIMALTD
 70
     3
  9
$DIMALTF
 40
0.0393700787
  9
$DIMLFAC
 40
1.0
  9
$DIMTOFL
 70
     1
  9
$DIMTVP
 40
0.0
  9
$DIMTIX
 70
     0
  9
$DIMSOXD
 70
     0
  9
$DIMSAH
 70
     0
  9
$DIMBLK1
  1

  9
$DIMBLK2
  1

  9
$DIMSTYLE
  2
ISO-25
  9
$DIMCLRD
 70
     0
  9
$DIMCLRE
 70
     0
  9
$DIMCLRT
 70
     0
  9
$DIMTFAC
 40
1.0
  9
$DIMGAP
 40
1.524
  9
$DIMJUST
 70
     0
  9
$DIMSD1
 70
     0
  9
$DIMSD2
 70
     0
  9
$DIMTOLJ
 70
     0
  9
$DIMTZIN
 70
     0
  9
$DIMALTZ
 70
     0
  9
$DIMALTTZ
 70
     0
  9
$DIMUPT
 70
     0
  9
$DIMDEC
 70
     2
  9
$DIMTDEC
 70
     2
  9
$DIMALTU
 70
     2
  9
$DIMALTTD
 70
     3
  9
$DIMTXSTY
  7
Standard
  9
$DIMAUNIT
 70
     0
  9
$DIMADEC
 70
     2
  9
$DIMALTRND
 40
0.0
  9
$DIMAZIN
 70
     0
  9
$DIMDSEP
 70
    44
  9
$DIMATFIT
 70
     3
  9
$DIMFRAC
 70
     0
  9
$DIMLDRBLK
  1

  9
$DIMLUNIT
 70
     2
  9
$DIMLWD
 70
    -2
  9
$DIMLWE
 70
    -2
  9
$DIMTMOVE
 70
     0
  9
$LUNITS
 70
     2
  9
$LUPREC
 70
     2
  9
$SKETCHINC
 40
1.0
  9
$FILLETRAD
 40
10.0
  9
$AUNITS
 70
     0
  9
$AUPREC
 70
     2
  9
$MENU
  1
.
  9
$ELEVATION
 40
0.0
  9
$PELEVATION
 40
0.0
  9
$THICKNESS
 40
0.0
  9
$LIMCHECK
 70
     0
  9
$CHAMFERA
 40
0.0
  9
$CHAMFERB
 40
0.0
  9
$CHAMFERC
 40
0.0
  9
$CHAMFERD
 40
0.0
  9
$SKPOLY
 70
     0
  9
$TDCREATE
 40
2457356.823394491
  9
$TDUCREATE
 40
2457357.115061157
  9
$TDUPDATE
 40
2457356.82341956
  9
$TDUUPDATE
 40
2457357.115086227
  9
$TDINDWG
 40
0.0000000116
  9
$TDUSRTIMER
 40
0.0000000116
  9
$USRTIMER
 70
     1
  9
$ANGBASE
 50
0.0
  9
$ANGDIR
 70
     0
  9
$PDMODE
 70
     0
  9
$PDSIZE
 40
-1.0
  9
$PLINEWID
 40
0.0
  9
$SPLFRAME
 70
     0
  9
$SPLINETYPE
 70
     6
  9
$SPLINESEGS
 70
     8
  9
$HANDSEED
  5
B8
  9
$SURFTAB1
 70
     6
  9
$SURFTAB2
 70
     6
  9
$SURFTYPE
 70
     6
  9
$SURFU
 70
     6
  9
$SURFV
 70
     6
  9
$UCSBASE
  2

  9
$UCSNAME
  2

  9
$UCSORG
 10
0.0
 20
0.0
 30
0.0
  9
$UCSXDIR
 10
1.0
 20
0.0
 30
0.0
  9
$UCSYDIR
 10
0.0
 20
1.0
 30
0.0
  9
$UCSORTHOREF
  2

  9
$UCSORTHOVIEW
 70
     0
  9
$UCSORGTOP
 10
0.0
 20
0.0
 30
0.0
  9
$UCSORGBOTTOM
 10
0.0
 20
0.0
 30
0.0
  9
$UCSORGLEFT
 10
0.0
 20
0.0
 30
0.0
  9
$UCSORGRIGHT
 10
0.0
 20
0.0
 30
0.0
  9
$UCSORGFRONT
 10
0.0
 20
0.0
 30
0.0
  9
$UCSORGBACK
 10
0.0
 20
0.0
 30
0.0
  9
$PUCSBASE
  2

  9
$PUCSNAME
  2

  9
$PUCSORG
 10
0.0
 20
0.0
 30
0.0
  9
$PUCSXDIR
 10
1.0
 20
0.0
 30
0.0
  9
$PUCSYDIR
 10
0.0
 20
1.0
 30
0.0
  9
$PUCSORTHOREF
  2

  9
$PUCSORTHOVIEW
 70
     0
  9
$PUCSORGTOP
 10
0.0
 20
0.0
 30
0.0
  9
$PUCSORGBOTTOM
 10
0.0
 20
0.0
 30
0.0
  9
$PUCSORGLEFT
 10
0.0
 20
0.0
 30
0.0
  9
$PUCSORGRIGHT
 10
0.0
 20
0.0
 30
0.0
  9
$PUCSORGFRONT
 10
0.0
 20
0.0
 30
0.0
  9
$PUCSORGBACK
 10
0.0
 20
0.0
 30
0.0
  9
$USERI1
 70
     0
  9
$USERI2
 70
     0
  9
$USERI3
 70
     0
  9
$USERI4
 70
     0
  9
$USERI5
 70
     0
  9
$USERR1
 40
0.0
  9
$USERR2
 40
0.0
  9
$USERR3
 40
0.0
  9
$USERR4
 40
0.0
  9
$USERR5
 40
0.0
  9
$WORLDVIEW
 70
     1
  9
$SHADEDGE
 70
     3
  9
$SHADEDIF
 70
    70
  9
$TILEMODE
 70
     1
  9
$MAXACTVP
 70
    64
  9
$PINSBASE
 10
0.0
 20
0.0
 30
0.0
  9
$PLIMCHECK
 70
     0
  9
$PEXTMIN
 10
1.0000000000E+20
 20
1.0000000000E+20
 30
1.0000000000E+20
  9
$PEXTMAX
 10
-1.0000000000E+20
 20
-1.0000000000E+20
 30
-1.0000000000E+20
  9
$PLIMMIN
 10
0.0
 20
0.0
  9
$PLIMMAX
 10
420.0
 20
297.0
  9
$UNITMODE
 70
     0
  9
$VISRETAIN
 70
     1
  9
$PLINEGEN
 70
     0
  9
$PSLTSCALE
 70
     1
  9
$TREEDEPTH
 70
  3020
  9
$CMLSTYLE
  2
Standard
  9
$CMLJUST
 70
     0
  9
$CMLSCALE
 40
20.0
  9
$PROXYGRAPHICS
 70
     1
  9
$MEASUREMENT
 70
     1
  9
$CELWEIGHT
370
    -1
  9
$ENDCAPS
280
     0
  9
$JOINSTYLE
280
     0
  9
$LWDISPLAY
290
     1
  9
$INSUNITS
 70
     4
  9
$HYPERLINKBASE
  1

  9
$STYLESHEET
  1

  9
$XEDIT
290
     1
  9
$CEPSNTYPE
380
     0
  9
$PSTYLEMODE
290
     1
  9
$FINGERPRINTGUID
  2
{23737FFF-5EF9-40F2-A23A-9AE169080058}
  9
$VERSIONGUID
  2
{FAEB1C32-E019-11D5-929B-00C0DF256EC4}
  9
$EXTNAMES
290
     1
  9
$PSVPSCALE
 40
0.0
  9
$OLESTARTUP
290
     0
  0
ENDSEC
  0
SECTION
  2
CLASSES
  0
CLASS
  1
ACDBDICTIONARYWDFLT
  2
AcDbDictionaryWithDefault
  3
ObjectDBX Classes
 90
        0
280
     0
281
     0
  0
CLASS
  1
VISUALSTYLE
  2
AcDbVisualStyle
  3
ObjectDBX Classes
 90
     4095
280
     0
281
     0
  0
CLASS
  1
MATERIAL
  2
AcDbMaterial
  3
ObjectDBX Classes
 90
     1153
280
     0
281
     0
  0
CLASS
  1
SCALE
  2
AcDbScale
  3
ObjectDBX Classes
 90
     1153
280
     0
281
     0
  0
CLASS
  1
TABLESTYLE
  2
AcDbTableStyle
  3
ObjectDBX Classes
 90
     4095
280
     0
281
     0
  0
CLASS
  1
MLEADERSTYLE
  2
AcDbMLeaderStyle
  3
ACDB_MLEADERSTYLE_CLASS
 90
     4095
280
     0
281
     0
  0
CLASS
  1
SUN
  2
AcDbSun
  3
SCENEOE
 90
     1153
280
     0
281
     0
  0
CLASS
  1
ACDBPLACEHOLDER
  2
AcDbPlaceHolder
  3
ObjectDBX Classes
 90
        0
280
     0
281
     0
  0
CLASS
  1
LAYOUT
  2
AcDbLayout
  3
ObjectDBX Classes
 90
        0
280
     0
281
     0
  0
ENDSEC
  0
SECTION
  2
TABLES
  0
TABLE
  2
VPORT
  5
8
330
0
100
AcDbSymbolTable
 70
     1
  0
VPORT
  5
29
330
8
100
AcDbSymbolTableRecord
100
AcDbViewportTableRecord
  2
*Active
 70
     0
 10
0.0
 20
0.0
 11
1.0
 21
1.0
 12
63.1869234511
 22
-8.0290577095
 13
0.0
 23
0.0
 14
10.0
 24
10.0
 15
10.0
 25
10.0
 16
0.0
 26
0.0
 36
1.0
 17
0.0
 27
0.0
 37
0.0
 40
53.3629964557
 41
2.4869210164
 42
50.0
 43
0.0
 44
0.0
 50
0.0
 51
0.0
 71
     0
 72
   100
 73
     1
 74
     3
 75
     0
 76
     0
 77
     0
 78
     0
281
     0
 65
     1
110
0.0
120
0.0
130
0.0
111
1.0
121
0.0
131
0.0
112
0.0
122
1.0
132
0.0
 79
     0
146
0.0
  0
ENDTAB
  0
TABLE
  2
LTYPE
  5
5
330
0
100
AcDbSymbolTable
 70
     6
  0
LTYPE
  5
14
330
5
100
AcDbSymbolTableRecord
100
AcDbLinetypeTableRecord
  2
ByBlock
 70
     0
  3

 72
    65
 73
     0
 40
0.0
  0
LTYPE
  5
15
330
5
100
AcDbSymbolTableRecord
100
AcDbLinetypeTableRecord
  2
ByLayer
 70
     0
  3

 72
    65
 73
     0
 40
0.0
  0
LTYPE
  5
16
330
5
100
AcDbSymbolTableRecord
100
AcDbLinetypeTableRecord
  2
Continuous
 70
     0
  3
Solid line
 72
    65
 73
     0
 40
0.0
  0
LTYPE
  5
6E
330
5
100
AcDbSymbolTableRecord
100
AcDbLinetypeTableRecord
  2
HIDDEN
 70
     0
  3
Hidden __ __ __ __ __ __ __ __ __ __ __ __ __ __
 72
    65
 73
     2
 40
1.905
 49
1.27
 74
     0
 49
-0.635
 74
     0
  0
LTYPE
  5
6F
330
5
100
AcDbSymbolTableRecord
100
AcDbLinetypeTableRecord
  2
PHANTOM
 70
     0
  3
Phantom ______  __  __  ______  __  __  ______
 72
    65
 73
     6
 40
12.7
 49
6.35
 74
     0
 49
-1.27
 74
     0
 49
1.27
 74
     0
 49
-1.27
 74
     0
 49
1.27
 74
     0
 49
-1.27
 74
     0
  0
LTYPE
  5
70
330
5
100
AcDbSymbolTableRecord
100
AcDbLinetypeTableRecord
  2
CENTER
 70
     0
  3
Center ____ _ ____ _ ____ _ ____ _ ____ _ ____
 72
    65
 73
     4
 40
10.16
 49
6.35
 74
     0
 49
-1.27
 74
     0
 49
1.27
 74
     0
 49
-1.27
 74
     0
  0
LTYPE
  5
71
330
5
100
AcDbSymbolTableRecord
100
AcDbLinetypeTableRecord
  2
CENTERX2
 70
     0
  3
Center (2x) ________  __  ________  __  _____
 72
    65
 73
     4
 40
20.32
 49
12.7
 74
     0
 49
-2.54
 74
     0
 49
2.54
 74
     0
 49
-2.54
 74
     0
  0
LTYPE
  5
72
330
5
100
AcDbSymbolTableRecord
100
AcDbLinetypeTableRecord
  2
DOT2
 70
     0
  3
Dot (.5x) ........................................
 72
    65
 73
     2
 40
0.635
 49
0.0
 74
     0
 49
-0.635
 74
     0
  0
ENDTAB
  0
TABLE
  2
LAYER
  5
2
330
0
100
AcDbSymbolTable
 70
     1
  0
LAYER
  5
10
330
2
100
AcDbSymbolTableRecord
100
AcDbLayerTableRecord
  2
0
 70
     0
 62
     7
  6
Continuous
370
    -3
390
F
  0
ENDTAB
  0
TABLE
  2
STYLE
  5
3
330
0
100
AcDbSymbolTable
 70
     1
  0
STYLE
  5
11
330
3
100
AcDbSymbolTableRecord
100
AcDbTextStyleTableRecord
  2
Standard
 70
     0
 40
0.0
 41
1.0
 50
0.0
 71
     0
 42
3.5
  3
txt
  4

  0
ENDTAB
  0
TABLE
  2
VIEW
  5
6
330
0
100
AcDbSymbolTable
 70
     0
  0
ENDTAB
  0
TABLE
  2
UCS
  5
7
330
0
100
AcDbSymbolTable
 70
     0
  0
ENDTAB
  0
TABLE
  2
APPID
  5
9
330
0
100
AcDbSymbolTable
 70
     1
  0
APPID
  5
12
330
9
100
AcDbSymbolTableRecord
100
AcDbRegAppTableRecord
  2
ACAD
 70
     0
  0
ENDTAB
  0
TABLE
  2
DIMSTYLE
  5
A
330
0
100
AcDbSymbolTable
 70
     1
100
AcDbDimStyleTable
  0
DIMSTYLE
105
27
330
A
100
AcDbSymbolTableRecord
100
AcDbDimStyleTableRecord
  2
ISO-25
 70
     0
 41
2.5
 42
0.625
 43
3.75
 44
1.25
 73
     0
 74
     0
 77
     1
 78
     8
140
2.5
141
2.5
143
0.0393700787
147
0.625
171
     3
172
     1
178
     0
271
     2
272
     2
274
     3
278
    44
283
     0
284
     8
340
11
  0
ENDTAB
  0
TABLE
  2
BLOCK_RECORD
  5
1
330
0
100
AcDbSymbolTable
 70
     1
  0
BLOCK_RECORD
  5
1F
330
1
100
AcDbSymbolTableRecord
100
AcDbBlockTableRecord
  2
*Model_Space
340
22
  0
BLOCK_RECORD
  5
1B
330
1
100
AcDbSymbolTableRecord
100
AcDbBlockTableRecord
  2
*Paper_Space
340
1E
  0
BLOCK_RECORD
  5
23
330
1
100
AcDbSymbolTableRecord
100
AcDbBlockTableRecord
  2
*Paper_Space0
340
26
  0
ENDTAB
  0
ENDSEC
  0
SECTION
  2
BLOCKS
  0
BLOCK
  5
20
330
1F
100
AcDbEntity
  8
0
100
AcDbBlockBegin
  2
*Model_Space
 70
     0
 10
0.0
 20
0.0
 30
0.0
  3
*Model_Space
  1

  0
ENDBLK
  5
21
330
1F
100
AcDbEntity
  8
0
100
AcDbBlockEnd
  0
BLOCK
  5
1C
330
1B
100
AcDbEntity
 67
     1
  8
0
100
AcDbBlockBegin
  2
*Paper_Space
 70
     0
 10
0.0
 20
0.0
 30
0.0
  3
*Paper_Space
  1

  0
ENDBLK
  5
1D
330
1B
100
AcDbEntity
 67
     1
  8
0
100
AcDbBlockEnd
  0
BLOCK
  5
24
330
23
100
AcDbEntity
  8
0
100
AcDbBlockBegin
  2
*Paper_Space0
 70
     0
 10
0.0
 20
0.0
 30
0.0
  3
*Paper_Space0
  1

  0
ENDBLK
  5
25
330
23
100
AcDbEntity
  8
0
100
AcDbBlockEnd
  0
ENDSEC
  0
SECTION
  2
ENTITIES
  0
LWPOLYLINE
  5
75
330
1F
100
AcDbEntity
  8
0
  6
Continuous
 62
     7
370
    15
100
AcDbPolyline
 90
        9
 70
   128
 43
0.0
 10
2.0541298097
 20
5.4522980245
 10
2.1507461242
 20
5.3170050777
 10
2.278171744
 20
5.2088561579
 10
2.4231248946
 20
5.1391237985
 10
2.5704968792
 20
5.1150763139
 10
2.7049268821
 20
5.1392202117
 10
2.8124030508
 20
5.209038935
 10
2.8817229738
 20
5.3172551676
 10
2.9056613257
 20
5.4525893598
  0
LWPOLYLINE
  5
77
330
1F
100
AcDbEntity
  8
0
  6
Continuous
 62
     7
370
    15
100
AcDbPolyline
 90
        9
 70
   128
 43
0.0
 10
2.9056613257
 20
8.8812585626
 10
2.8817229738
 20
9.0296046171
 10
2.8124030508
 20
9.1755001891
 10
2.7049268821
 20
9.3037383519
 10
2.5704968792
 20
9.4009526383
 10
2.4231248946
 20
9.457010249
 10
2.278171744
 20
9.4660682103
 10
2.1507461242
 20
9.4271823966
 10
2.0541298097
 20
9.3444059379
  0
LWPOLYLINE
  5
79
330
1F
100
AcDbEntity
  8
0
  6
Continuous
 62
     7
370
    15
100
AcDbPolyline
 90
        9
 70
   128
 43
0.0
 10
15.4383428138
 20
5.7068636323
 10
15.3417264993
 20
5.8421565791
 10
15.2143008795
 20
5.9503054989
 10
15.0693477289
 20
6.0200378583
 10
14.9219757443
 20
6.0440853429
 10
14.7875457414
 20
6.0199414451
 10
14.6800695727
 20
5.9501227218
 10
14.6107496496
 20
5.8419064893
 10
14.5868112978
 20
5.706572297
  0
LWPOLYLINE
  5
7B
330
1F
100
AcDbEntity
  8
0
  6
Continuous
 62
     7
370
    15
100
AcDbPolyline
 90
        9
 70
   128
 43
0.0
 10
14.5868112978
 20
2.2779030942
 10
14.6107496496
 20
2.1295570397
 10
14.6800695727
 20
1.9836614677
 10
14.7875457414
 20
1.8554233049
 10
14.9219757443
 20
1.7582090185
 10
15.0693477289
 20
1.7021514079
 10
15.2143008795
 20
1.6930934465
 10
15.3417264993
 20
1.7319792602
 10
15.4383428138
 20
1.8147557189
  0
LWPOLYLINE
  5
7D
330
1F
100
AcDbEntity
  8
0
  6
Continuous
 62
     7
370
    15
100
AcDbPolyline
 90
       32
 70
   128
 43
0.0
 10
117.9718743389
 20
-24.1056071651
 10
117.9266141116
 20
-23.6619401324
 10
117.7926863888
 20
-23.2118353602
 10
117.5755741872
 20
-22.7737201908
 10
117.2841661059
 20
-22.3655311106
 10
116.9303924258
 20
-22.0039794287
 10
116.5287366831
 20
-21.7038671133
 10
116.0956427111
 20
-21.4774807979
 10
115.6488414278
 20
-21.3340887648
 10
115.2066249303
 20
-21.2795615008
 10
114.7870976139
 20
-21.3161313584
 10
114.4074349763
 20
-21.4423011633
 10
114.0831804505
 20
-21.6529055089
 10
113.8276090548
 20
-21.9393222286
 10
113.6511839123
 20
-22.2898253882
 10
113.5611278889
 20
-22.6900653471
 10
113.5611278889
 20
-23.1236562345
 10
113.6511839123
 20
-23.5728467884
 10
113.8276090548
 20
-24.0192470948
 10
114.0831804505
 20
-24.4445814727
 10
114.4074349763
 20
-24.8314366827
 10
114.7870976139
 20
-25.1639748271
 10
115.2066249303
 20
-25.428581755
 10
115.6488414278
 20
-25.6144244279
 10
116.0956427111
 20
-25.7138944249
 10
116.5287366831
 20
-25.7229194325
 10
116.9303924258
 20
-25.641129966
 10
117.2841661059
 20
-25.4718744956
 10
117.5755741872
 20
-25.2220823603
 10
117.7926863888
 20
-24.9019800794
 10
117.9266141116
 20
-24.5246726778
 10
117.9718743389
 20
-24.1056071651
  0
LWPOLYLINE
  5
7E
330
1F
100
AcDbEntity
  8
0
  6
Continuous
 62
     7
370
    15
100
AcDbPolyline
 90
       25
 70
   128
 43
0.0
 10
74.6353863767
 20
-18.3278494305
 10
74.5901826516
 20
-17.9827871932
 10
74.4576520356
 20
-17.6366695694
 10
74.2468262711
 20
-17.3130839032
 10
73.9720727855
 20
-17.0340820229
 10
73.6521155748
 20
-16.8186774456
 10
73.3087591942
 20
-16.6815496374
 10
72.9654028136
 20
-16.6320436316
 10
72.6454456029
 20
-16.6735331809
 10
72.3706921173
 20
-16.8031908409
 10
72.1598663528
 20
-17.0121806564
 10
72.0273357367
 20
-17.2862603169
 10
71.9821320117
 20
-17.6067517464
 10
72.0273357367
 20
-17.9518139837
 10
72.1598663528
 20
-18.2979316075
 10
72.3706921173
 20
-18.6215172737
 10
72.6454456029
 20
-18.900519154
 10
72.9654028136
 20
-19.1159237312
 10
73.3087591942
 20
-19.2530515395
 10
73.6521155748
 20
-19.3025575452
 10
73.9720727855
 20
-19.261067996
 10
74.2468262711
 20
-19.131410336
 10
74.4576520356
 20
-18.9224205205
 10
74.5901826516
 20
-18.64834086
 10
74.6353863767
 20
-18.3278494305
  0
LWPOLYLINE
  5
7F
330
1F
100
AcDbEntity
  8
0
  6
Continuous
 62
     7
370
    15
100
AcDbPolyline
 90
       25
 70
   128
 43
0.0
 10
52.5249333348
 20
-12.3187020634
 10
52.4797296097
 20
-11.9736398261
 10
52.3471989937
 20
-11.6275222023
 10
52.1363732291
 20
-11.3039365361
 10
51.8616197435
 20
-11.0249346558
 10
51.5416625328
 20
-10.8095300785
 10
51.1983061523
 20
-10.6724022703
 10
50.8549497717
 20
-10.6228962645
 10
50.534992561
 20
-10.6643858138
 10
50.2602390754
 20
-10.7940434738
 10
50.0494133109
 20
-11.0030332893
 10
49.9168826948
 20
-11.2771129498
 10
49.8716789697
 20
-11.5976043793
 10
49.9168826948
 20
-11.9426666166
 10
50.0494133109
 20
-12.2887842404
 10
50.2602390754
 20
-12.6123699066
 10
50.534992561
 20
-12.8913717869
 10
50.8549497717
 20
-13.1067763641
 10
51.1983061523
 20
-13.2439041724
 10
51.5416625328
 20
-13.2934101781
 10
51.8616197435
 20
-13.2519206289
 10
52.1363732291
 20
-13.1222629689
 10
52.3471989937
 20
-12.9132731534
 10
52.4797296097
 20
-12.6391934929
 10
52.5249333348
 20
-12.3187020634
  0
LWPOLYLINE
  5
81
330
1F
100
AcDbEntity
  8
0
  6
Continuous
 62
     7
370
    15
100
AcDbPolyline
 90
       35
 70
   128
 43
0.0
 10
115.7608290347
 20
-33.7907000368
 10
116.7400747447
 20
-34.012959743
 10
117.7109658756
 20
-34.1455666176
 10
118.6652191265
 20
-34.1873893054
 10
119.5946931453
 20
-34.1380709901
 10
120.4914579872
 20
-33.9980324382
 10
121.3478627709
 20
-33.7684684091
 10
122.1566009527
 20
-33.4513374623
 10
122.9107726635
 20
-33.0493452471
 10
123.6039435764
 20
-32.5659214195
 10
124.2301998013
 20
-32.005190381
 10
124.7841983411
 20
-31.3719360911
 10
125.2612126755
 20
-30.6715612522
 10
125.6571730865
 20
-29.9100412155
 10
125.9687013793
 20
-29.0938730014
 10
126.1931397045
 20
-28.2300198693
 10
126.3285732334
 20
-27.3258519096
 10
126.3738464948
 20
-26.3890831646
 10
126.3285732334
 20
-25.4277058147
 10
126.1931397045
 20
-24.4499219927
 10
125.9687013793
 20
-23.4640738053
 10
125.6571730865
 20
-22.4785721617
 10
125.2612126755
 20
-21.5018250144
 10
124.7841983411
 20
-20.5421656257
 10
124.2301998013
 20
-19.6077814712
 10
123.6039435764
 20
-18.7066443868
 10
122.9107726635
 20
-17.8464425567
 10
122.1566009527
 20
-17.0345149194
 10
121.3478627709
 20
-16.2777885553
 10
120.4914579872
 20
-15.5827195869
 10
119.5946931453
 20
-14.9552380975
 10
118.6652191265
 20
-14.4006975381
 10
117.7109658756
 20
-13.9238290531
 10
116.7400747447
 20
-13.5287011163
 10
115.7608290347
 20
-13.2186848199
  0
LWPOLYLINE
  5
83
330
1F
100
AcDbEntity
  8
0
  6
Continuous
 62
     7
370
    15
100
AcDbPolyline
 90
       35
 70
   128
 43
0.0
 10
8.7462363117
 20
15.8655884368
 10
7.7669906017
 20
16.087848143
 10
6.7960994709
 20
16.2204550176
 10
5.8418462199
 20
16.2622777055
 10
4.9123722012
 20
16.2129593902
 10
4.0156073592
 20
16.0729208382
 10
3.1592025756
 20
15.8433568092
 10
2.3504643938
 20
15.5262258624
 10
1.5962926829
 20
15.1242336472
 10
0.9031217701
 20
14.6408098195
 10
0.2768655451
 20
14.080078781
 10
-0.2771329947
 20
13.4468244911
 10
-0.7541473291
 20
12.7464496523
 10
-1.15010774
 20
11.9849296155
 10
-1.4616360328
 20
11.1687614014
 10
-1.686074358
 20
10.3049082694
 10
-1.8215078869
 20
9.4007403097
 10
-1.8667811484
 20
8.4639715646
 10
-1.8215078869
 20
7.5025942148
 10
-1.686074358
 20
6.5248103928
 10
-1.4616360328
 20
5.5389622054
 10
-1.15010774
 20
4.5534605618
 10
-0.7541473291
 20
3.5767134145
 10
-0.2771329947
 20
2.6170540258
 10
0.2768655451
 20
1.6826698712
 10
0.9031217701
 20
0.7815327869
 10
1.5962926829
 20
-0.0786690433
 10
2.3504643938
 20
-0.8905966806
 10
3.1592025756
 20
-1.6473230447
 10
4.0156073592
 20
-2.3423920131
 10
4.9123722012
 20
-2.9698735024
 10
5.8418462199
 20
-3.5244140618
 10
6.7960994709
 20
-4.0012825469
 10
7.7669906017
 20
-4.3964104837
 10
8.7462363117
 20
-4.70642678
  0
LWPOLYLINE
  5
84
330
1F
100
AcDbEntity
  8
0
  6
Continuous
 62
     7
370
    15
100
AcDbPolyline
 90
       40
 70
   128
 43
0.0
 10
12.2839087985
 20
4.6181172497
 10
12.2380968689
 20
5.180565169
 10
12.1018475851
 20
5.7533473842
 10
11.8786897319
 20
6.321629137
 10
11.5744029805
 20
6.8706922283
 10
11.196868198
 20
7.3863162126
 10
10.7558633369
 20
7.8551466995
 10
10.2628101915
 20
8.2650412256
 10
9.7304785792
 20
8.605383738
 10
9.1726556091
 20
8.8673595444
 10
8.6037886033
 20
9.0441836091
 10
8.0386109182
 20
9.1312762816
 10
7.4917603592
 20
9.1263819076
 10
6.9774000684
 20
9.0296272486
 10
6.5088517072
 20
8.8435181995
 10
6.0982504319
 20
8.5728748871
 10
5.7562306001
 20
8.2247068308
 10
5.4916503456
 20
7.8080314004
 10
5.311362158
 20
7.3336402708
 10
5.2200354068
 20
6.813819923
 10
5.2200354068
 20
6.262033431
 10
5.311362158
 20
5.692571775
 10
5.4916503456
 20
5.1201837129
 10
5.7562306001
 20
4.5596937948
 10
6.0982504319
 20
4.0256184151
 10
6.5088517072
 20
3.5317898456
 10
6.9774000684
 20
3.090997987
 10
7.4917603592
 20
2.7146591167
 10
8.0386109182
 20
2.4125202139
 10
8.6037886033
 20
2.1924065175
 10
9.1726556091
 20
2.0600188565
 10
9.7304785792
 20
2.0187860018
 10
10.2628101915
 20
2.0697758627
 10
10.7558633369
 20
2.2116678287
 10
11.196868198
 20
2.4407869722
 10
11.5744029805
 20
2.7511992279
 10
11.8786897319
 20
3.1348650813
 10
12.1018475851
 20
3.5818477885
 10
12.2380968689
 20
4.080570732
 10
12.2839087985
 20
4.6181172497
  0
LWPOLYLINE
  5
85
330
1F
100
AcDbEntity
  8
0
  6
Continuous
 62
     7
370
    15
100
AcDbPolyline
 90
       25
 70
   128
 43
0.0
 10
52.5249333348
 20
-0.3183598535
 10
52.4797296097
 20
0.0267023837
 10
52.3471989937
 20
0.3728200075
 10
52.1363732291
 20
0.6964056737
 10
51.8616197435
 20
0.975407554
 10
51.5416625328
 20
1.1908121313
 10
51.1983061523
 20
1.3279399395
 10
50.8549497717
 20
1.3774459453
 10
50.534992561
 20
1.3359563961
 10
50.2602390754
 20
1.206298736
 10
50.0494133109
 20
0.9973089205
 10
49.9168826948
 20
0.72322926
 10
49.8716789697
 20
0.4027378305
 10
49.9168826948
 20
0.0576755932
 10
50.0494133109
 20
-0.2884420305
 10
50.2602390754
 20
-0.6120276968
 10
50.534992561
 20
-0.8910295771
 10
50.8549497717
 20
-1.1064341543
 10
51.1983061523
 20
-1.2435619626
 10
51.5416625328
 20
-1.2930679683
 10
51.8616197435
 20
-1.2515784191
 10
52.1363732291
 20
-1.1219207591
 10
52.3471989937
 20
-0.9129309435
 10
52.4797296097
 20
-0.6388512831
 10
52.5249333348
 20
-0.3183598535
  0
LWPOLYLINE
  5
86
330
1F
100
AcDbEntity
  8
0
  6
Continuous
 62
     7
370
    15
100
AcDbPolyline
 90
       25
 70
   128
 43
0.0
 10
74.6353863767
 20
-6.3275072206
 10
74.5901826516
 20
-5.9824449834
 10
74.4576520356
 20
-5.6363273596
 10
74.2468262711
 20
-5.3127416933
 10
73.9720727855
 20
-5.0337398131
 10
73.6521155748
 20
-4.8183352358
 10
73.3087591942
 20
-4.6812074276
 10
72.9654028136
 20
-4.6317014218
 10
72.6454456029
 20
-4.673190971
 10
72.3706921173
 20
-4.8028486311
 10
72.1598663528
 20
-5.0118384466
 10
72.0273357367
 20
-5.2859181071
 10
71.9821320117
 20
-5.6064095366
 10
72.0273357367
 20
-5.9514717738
 10
72.1598663528
 20
-6.2975893976
 10
72.3706921173
 20
-6.6211750639
 10
72.6454456029
 20
-6.9001769441
 10
72.9654028136
 20
-7.1155815214
 10
73.3087591942
 20
-7.2527093297
 10
73.6521155748
 20
-7.3022153354
 10
73.9720727855
 20
-7.2607257862
 10
74.2468262711
 20
-7.1310681262
 10
74.4576520356
 20
-6.9220783106
 10
74.5901826516
 20
-6.6479986502
 10
74.6353863767
 20
-6.3275072206
  0
LWPOLYLINE
  5
87
330
1F
100
AcDbEntity
  8
0
  6
Continuous
 62
     7
370
    15
100
AcDbPolyline
 90
        9
 70
   128
 43
0.0
 10
10.7541586668
 20
-1.4520377774
 10
10.86665977
 20
-1.3889738082
 10
10.9425143802
 20
-1.286090103
 10
10.9738160509
 20
-1.1541103936
 10
10.9573021594
 20
-1.0067911343
 10
10.8946939747
 20
-0.8594876453
 10
10.7925172474
 20
-0.727553603
 10
10.6614220196
 20
-0.6247407017
 10
10.5150725551
 20
-0.5617652933
  0
LWPOLYLINE
  5
89
330
1F
100
AcDbEntity
  8
0
  6
Continuous
 62
     7
370
    15
100
AcDbPolyline
 90
        9
 70
   128
 43
0.0
 10
6.9774000684
 20
0.3996982854
 10
6.8310506038
 20
0.4162721742
 10
6.6999553761
 20
0.3847170206
 10
6.5977786488
 20
0.3083218685
 10
6.5351704641
 20
0.1950495056
 10
6.5186565726
 20
0.0567064901
 10
6.5499582433
 20
-0.0922874661
 10
6.6258128535
 20
-0.2364024867
 10
6.7383139567
 20
-0.3606172344
  0
LWPOLYLINE
  5
8B
330
1F
100
AcDbEntity
  8
0
  6
Continuous
 62
     7
370
    15
100
AcDbPolyline
 90
        9
 70
   128
 43
0.0
 10
6.7383139567
 20
12.6111994342
 10
6.6258128535
 20
12.548135465
 10
6.5499582433
 20
12.4452517598
 10
6.5186565726
 20
12.3132720504
 10
6.5351704641
 20
12.1659527911
 10
6.5977786488
 20
12.0186493021
 10
6.6999553761
 20
11.8867152598
 10
6.8310506038
 20
11.7839023585
 10
6.9774000684
 20
11.7209269501
  0
LWPOLYLINE
  5
8D
330
1F
100
AcDbEntity
  8
0
  6
Continuous
 62
     7
370
    15
100
AcDbPolyline
 90
        9
 70
   128
 43
0.0
 10
10.5150725551
 20
10.7594633714
 10
10.6614220196
 20
10.7428894826
 10
10.7925172474
 20
10.7744446362
 10
10.8946939747
 20
10.8508397883
 10
10.9573021594
 20
10.9641121512
 10
10.9738160509
 20
11.1024551667
 10
10.9425143802
 20
11.2514491229
 10
10.86665977
 20
11.3955641435
 10
10.7541586668
 20
11.5197788912
  0
LWPOLYLINE
  5
90
330
1F
100
AcDbEntity
  8
0
  6
Continuous
 62
     7
370
    15
100
AcDbPolyline
 90
       26
 70
   128
 43
0.0
 10
126.0093484942
 20
-30.270232876
 10
126.096981357
 20
-30.1831543537
 10
126.6509798968
 20
-29.5499000639
 10
127.1279942313
 20
-28.849525225
 10
127.5239546422
 20
-28.0880051883
 10
127.835482935
 20
-27.2718369742
 10
128.0599212602
 20
-26.4079838421
 10
128.1953547891
 20
-25.5038158824
 10
128.2406280506
 20
-24.5670471373
 10
128.1953547891
 20
-23.6056697875
 10
128.0599212602
 20
-22.6278859655
 10
127.835482935
 20
-21.6420377781
 10
127.5239546422
 20
-20.6565361345
 10
127.1279942313
 20
-19.6797889872
 10
126.6509798968
 20
-18.7201295985
 10
126.096981357
 20
-17.7857454439
 10
125.4707251321
 20
-16.8846083596
 10
124.7775542193
 20
-16.0244065295
 10
124.0233825084
 20
-15.2124788922
 10
123.2146443266
 20
-14.4557525281
 10
122.3582395429
 20
-13.7606835596
 10
121.461474701
 20
-13.1332020703
 10
120.5320006823
 20
-12.5786615109
 10
119.5777474313
 20
-12.1017930259
 10
118.6068563004
 20
-11.7066650891
 10
117.6276105904
 20
-11.3966487927
  0
LINE
  5
9E
330
1F
100
AcDbEntity
  8
0
  6
Continuous
 62
     7
370
    15
100
AcDbLine
 10
124.1425669385
 20
-32.0922689032
 30
0.0
 11
126.0093484942
 21
-30.270232876
 31
0.0
  0
LINE
  5
9F
330
1F
100
AcDbEntity
  8
0
  6
Continuous
 62
     7
370
    15
100
AcDbLine
 10
2.2312799637
 20
15.9891933305
 30
0.0
 11
0.3644984079
 21
14.1671573033
 31
0.0
  0
LINE
  5
A0
330
1F
100
AcDbEntity
  8
0
  6
Continuous
 62
     7
370
    15
100
AcDbLine
 10
115.7608290347
 20
-13.2186848199
 30
0.0
 11
8.7462363117
 21
15.8655884368
 31
0.0
  0
LINE
  5
A1
330
1F
100
AcDbEntity
  8
0
  6
Continuous
 62
     7
370
    15
100
AcDbLine
 10
8.7462363117
 20
-4.70642678
 30
0.0
 11
115.7608290347
 21
-33.7907000368
 31
0.0
  0
LINE
  5
A2
330
1F
100
AcDbEntity
  8
0
  6
Continuous
 62
     7
370
    15
100
AcDbLine
 10
115.7608290347
 20
-13.2186848199
 30
0.0
 11
117.6276105904
 21
-11.3966487927
 31
0.0
  0
LINE
  5
A3
330
1F
100
AcDbEntity
  8
0
  6
Continuous
 62
     7
370
    15
100
AcDbLine
 10
8.7462363117
 20
15.8655884368
 30
0.0
 11
10.6130178675
 21
17.687624464
 31
0.0
  0
LINE
  5
A4
330
1F
100
AcDbEntity
  8
0
  6
Continuous
 62
     7
370
    15
100
AcDbLine
 10
117.6276105904
 20
-11.3966487927
 30
0.0
 11
10.6130178675
 21
17.687624464
 31
0.0
  0
LINE
  5
A5
330
1F
100
AcDbEntity
  8
0
  6
Continuous
 62
     7
370
    15
100
AcDbLine
 10
10.5150725551
 20
10.7594633714
 30
0.0
 11
10.9601187108
 21
11.1938420629
 31
0.0
  0
LINE
  5
A6
330
1F
100
AcDbEntity
  8
0
  6
Continuous
 62
     7
370
    15
100
AcDbLine
 10
6.9774000684
 20
11.7209269501
 30
0.0
 11
7.8198056869
 21
12.543140659
 31
0.0
  0
LINE
  5
A7
330
1F
100
AcDbEntity
  8
0
  6
Continuous
 62
     7
370
    15
100
AcDbLine
 10
14.5868112978
 20
5.706572297
 30
0.0
 11
14.9324837919
 21
6.0439592482
 31
0.0
  0
LINE
  5
A8
330
1F
100
AcDbEntity
  8
0
  6
Continuous
 62
     7
370
    15
100
AcDbLine
 10
14.5868112978
 20
2.2779030942
 30
0.0
 11
15.7265797726
 21
3.3903520668
 31
0.0
  0
LINE
  5
A9
330
1F
100
AcDbEntity
  8
0
  6
Continuous
 62
     7
370
    15
100
AcDbLine
 10
2.0541298097
 20
9.3444059379
 30
0.0
 11
2.117632924
 21
9.4063869242
 31
0.0
  0
LINE
  5
AA
330
1F
100
AcDbEntity
  8
0
  6
Continuous
 62
     7
370
    15
100
AcDbLine
 10
2.0541298097
 20
5.4522980245
 30
0.0
 11
2.7466568391
 21
6.1282256356
 31
0.0
  0
LINE
  5
AB
330
1F
100
AcDbEntity
  8
0
  6
Continuous
 62
     7
370
    15
100
AcDbLine
 10
10.7541586668
 20
-1.4520377774
 30
0.0
 11
10.9542375382
 21
-1.2567546652
 31
0.0
  0
LINE
  5
AC
330
1F
100
AcDbEntity
  8
0
  6
Continuous
 62
     7
370
    15
100
AcDbLine
 10
6.7383139567
 20
-0.3606172344
 30
0.0
 11
7.3263207072
 21
0.2132953802
 31
0.0
  0
ARC
  5
AD
330
1F
100
AcDbEntity
  8
0
  6
Continuous
 62
     7
370
    15
100
AcDbCircle
 10
8.3771902778
 20
7.1669239612
 30
0.0
 40
5.733809571258494
100
AcDbArc
 50
162.6032290098
 51
197.3967709902
  0
ARC
  5
AE
330
1F
100
AcDbEntity
  8
0
  6
Continuous
 62
     7
370
    15
100
AcDbCircle
 10
8.3236884766
 20
7.3983519812
 30
0.0
 40
6.564639508792451
100
AcDbArc
 50
162.7557993658
 51
197.2442006342
  0
ARC
  5
AF
330
1F
100
AcDbEntity
  8
0
  6
Continuous
 62
     7
370
    15
100
AcDbCircle
 10
9.1152823457
 20
3.9922376956
 30
0.0
 40
5.733809571258605
100
AcDbArc
 50
342.6032290098
 51
17.3967709902
  0
ARC
  5
B0
330
1F
100
AcDbEntity
  8
0
  6
Continuous
 62
     7
370
    15
100
AcDbCircle
 10
9.1687841469
 20
3.7608096756
 30
0.0
 40
6.564639508792388
100
AcDbArc
 50
342.7557993658
 51
17.2442006342
  0
ARC
  5
B1
330
1F
100
AcDbEntity
  8
0
  6
Continuous
 62
     7
370
    15
100
AcDbCircle
 10
10.5091318163
 20
6.4054804537
 30
0.0
 40
6.967248279775961
100
AcDbArc
 50
239.542119488
 51
270.0488541947
  0
ARC
  5
B2
330
1F
100
AcDbEntity
  8
0
  6
Continuous
 62
     7
370
    15
100
AcDbCircle
 10
10.7660695132
 20
6.5255799553
 30
0.0
 40
7.977626624343048
100
AcDbArc
 50
239.6765181079
 51
269.9144555748
  0
ARC
  5
B3
330
1F
100
AcDbEntity
  8
0
  6
Continuous
 62
     7
370
    15
100
AcDbCircle
 10
6.9833408072
 20
4.7536812031
 30
0.0
 40
6.967248279775998
100
AcDbArc
 50
59.542119488
 51
90.0488541947
  0
ARC
  5
B4
330
1F
100
AcDbEntity
  8
0
  6
Continuous
 62
     7
370
    15
100
AcDbCircle
 10
6.7264031103
 20
4.6335817015
 30
0.0
 40
7.977626624343116
100
AcDbArc
 50
59.6765181079
 51
89.9144555748
  0
ARC
  5
B5
330
1F
100
AcDbEntity
  8
0
  6
Continuous
 62
     7
370
    15
100
AcDbCircle
 10
118.4313213155
 20
-20.8982100946
 30
0.0
 40
3.03019010033449
100
AcDbArc
 50
187.5366375302
 51
261.0734297078
  0
ARC
  5
B6
330
1F
100
AcDbEntity
  8
0
  6
Continuous
 62
     7
370
    15
100
AcDbCircle
 10
7.897266503
 20
9.558720748
 30
0.0
 40
8.570553138417516
100
AcDbArc
 50
71.5262576906
 51
131.3837643804
  0
ARC
  5
B7
330
1F
100
AcDbEntity
  8
0
  6
Continuous
 62
     7
370
    15
100
AcDbCircle
 10
11.6474690489
 20
8.4112729213
 30
0.0
 40
4.538867925742105
100
AcDbArc
 50
171.5938789237
 51
277.0161883144
  0
ENDSEC
  0
SECTION
  2
OBJECTS
  0
DICTIONARY
  5
C
330
0
100
AcDbDictionary
281
     1
  3
ACAD_GROUP
350
D
  3
ACAD_LAYOUT
350
1A
  3
ACAD_MLINESTYLE
350
17
  3
ACAD_PLOTSETTINGS
350
19
  3
ACAD_PLOTSTYLENAME
350
E
  3
ACAD_SCALELIST
350
47
  0
DICTIONARY
  5
D
102
{ACAD_REACTORS
330
C
102
}
330
C
100
AcDbDictionary
281
     1
  0
DICTIONARY
  5
1A
102
{ACAD_REACTORS
330
C
102
}
330
C
100
AcDbDictionary
281
     1
  3
Layout1
350
1E
  3
Layout2
350
26
  3
Model
350
22
  0
DICTIONARY
  5
17
102
{ACAD_REACTORS
330
C
102
}
330
C
100
AcDbDictionary
281
     1
  3
Standard
350
18
  0
DICTIONARY
  5
19
102
{ACAD_REACTORS
330
C
102
}
330
C
100
AcDbDictionary
281
     1
  0
ACDBDICTIONARYWDFLT
  5
E
102
{ACAD_REACTORS
330
C
102
}
330
C
100
AcDbDictionary
281
     1
  3
Normal
350
F
100
AcDbDictionaryWithDefault
340
F
  0
DICTIONARY
  5
47
102
{ACAD_REACTORS
330
C
102
}
330
C
100
AcDbDictionary
281
     1
  3
A0
350
48
  3
A1
350
49
  3
A2
350
4A
  3
A3
350
4B
  3
A4
350
4C
  3
A5
350
4D
  3
A6
350
4E
  3
A7
350
4F
  3
A8
350
50
  3
A9
350
51
  3
B0
350
52
  3
B1
350
53
  3
B2
350
54
  3
B3
350
55
  3
B4
350
56
  3
B5
350
57
  3
B6
350
58
  3
B7
350
59
  3
B8
350
5A
  3
B9
350
5B
  3
C0
350
5C
  3
C1
350
5D
  3
C2
350
5E
  3
C3
350
5F
  3
C4
350
60
  3
C5
350
61
  3
C6
350
62
  3
C7
350
63
  3
C8
350
64
  3
C9
350
65
  3
D0
350
66
  3
D1
350
67
  3
D2
350
68
  0
LAYOUT
  5
1E
102
{ACAD_REACTORS
330
1A
102
}
330
1A
100
AcDbPlotSettings
  1

  2
none_device
  4

  6

 40
0.0
 41
0.0
 42
0.0
 43
0.0
 44
0.0
 45
0.0
 46
0.0
 47
0.0
 48
0.0
 49
0.0
140
0.0
141
0.0
142
1.0
143
1.0
 70
   688
 72
     1
 73
     0
 74
     5
  7

 75
    16
147
1.0
148
0.0
149
0.0
100
AcDbLayout
  1
Layout1
 70
     1
 71
     1
 10
0.0
 20
0.0
 11
420.0
 21
297.0
 12
0.0
 22
0.0
 32
0.0
 14
1.0000000000E+20
 24
1.0000000000E+20
 34
1.0000000000E+20
 15
-1.0000000000E+20
 25
-1.0000000000E+20
 35
-1.0000000000E+20
146
0.0
 13
0.0
 23
0.0
 33
0.0
 16
1.0
 26
0.0
 36
0.0
 17
0.0
 27
1.0
 37
0.0
 76
     0
330
1B
  0
LAYOUT
  5
26
102
{ACAD_REACTORS
330
1A
102
}
330
1A
100
AcDbPlotSettings
  1

  2
none_device
  4

  6

 40
0.0
 41
0.0
 42
0.0
 43
0.0
 44
0.0
 45
0.0
 46
0.0
 47
0.0
 48
0.0
 49
0.0
140
0.0
141
0.0
142
1.0
143
1.0
 70
   688
 72
     1
 73
     0
 74
     5
  7

 75
    16
147
1.0
148
0.0
149
0.0
100
AcDbLayout
  1
Layout2
 70
     1
 71
     2
 10
0.0
 20
0.0
 11
0.0
 21
0.0
 12
0.0
 22
0.0
 32
0.0
 14
0.0
 24
0.0
 34
0.0
 15
0.0
 25
0.0
 35
0.0
146
0.0
 13
0.0
 23
0.0
 33
0.0
 16
1.0
 26
0.0
 36
0.0
 17
0.0
 27
1.0
 37
0.0
 76
     0
330
23
  0
LAYOUT
  5
22
102
{ACAD_REACTORS
330
1A
102
}
330
1A
100
AcDbPlotSettings
  1

  2
none_device
  4
ANSI_A_(11.00_x_8.50_Inches)
  6

 40
6.35
 41
19.05
 42
6.35000508
 43
19.05000254
 44
279.4
 45
215.9
 46
-0.9842595644
 47
105.9696302788
 48
0.0
 49
0.0
140
0.0
141
0.0
142
0.0837000757
143
1.0
 70
  1696
 72
     0
 73
     0
 74
     0
  7

 75
     0
147
0.0179189148
148
-1300.4909072572
149
0.0
100
AcDbLayout
  1
Model
 70
     1
 71
     0
 10
0.0
 20
0.0
 11
420.0
 21
297.0
 12
0.0
 22
0.0
 32
0.0
 14
-1.8667811484
 24
-34.1873893054
 34
0.0
 15
128.2406280506
 25
18.1292738864
 35
0.0
146
0.0
 13
0.0
 23
0.0
 33
0.0
 16
1.0
 26
0.0
 36
0.0
 17
0.0
 27
1.0
 37
0.0
 76
     0
330
1F
331
29
  0
MLINESTYLE
  5
18
102
{ACAD_REACTORS
330
17
102
}
330
17
100
AcDbMlineStyle
  2
Standard
 70
     0
  3

 62
   256
 51
90.0
 52
90.0
 71
     2
 49
0.5
 62
   256
  6
BYLAYER
 49
-0.5
 62
   256
  6
BYLAYER
  0
ACDBPLACEHOLDER
  5
F
102
{ACAD_REACTORS
330
E
102
}
330
E
  0
SCALE
  5
48
102
{ACAD_REACTORS
330
47
102
}
330
47
100
AcDbScale
 70
     0
300
1:1
140
1.0
141
1.0
290
     1
  0
SCALE
  5
49
102
{ACAD_REACTORS
330
47
102
}
330
47
100
AcDbScale
 70
     0
300
1:2
140
1.0
141
2.0
290
     0
  0
SCALE
  5
4A
102
{ACAD_REACTORS
330
47
102
}
330
47
100
AcDbScale
 70
     0
300
1:4
140
1.0
141
4.0
290
     0
  0
SCALE
  5
4B
102
{ACAD_REACTORS
330
47
102
}
330
47
100
AcDbScale
 70
     0
300
1:5
140
1.0
141
5.0
290
     0
  0
SCALE
  5
4C
102
{ACAD_REACTORS
330
47
102
}
330
47
100
AcDbScale
 70
     0
300
1:8
140
1.0
141
8.0
290
     0
  0
SCALE
  5
4D
102
{ACAD_REACTORS
330
47
102
}
330
47
100
AcDbScale
 70
     0
300
1:10
140
1.0
141
10.0
290
     0
  0
SCALE
  5
4E
102
{ACAD_REACTORS
330
47
102
}
330
47
100
AcDbScale
 70
     0
300
1:16
140
1.0
141
16.0
290
     0
  0
SCALE
  5
4F
102
{ACAD_REACTORS
330
47
102
}
330
47
100
AcDbScale
 70
     0
300
1:20
140
1.0
141
20.0
290
     0
  0
SCALE
  5
50
102
{ACAD_REACTORS
330
47
102
}
330
47
100
AcDbScale
 70
     0
300
1:30
140
1.0
141
30.0
290
     0
  0
SCALE
  5
51
102
{ACAD_REACTORS
330
47
102
}
330
47
100
AcDbScale
 70
     0
300
1:40
140
1.0
141
40.0
290
     0
  0
SCALE
  5
52
102
{ACAD_REACTORS
330
47
102
}
330
47
100
AcDbScale
 70
     0
300
1:50
140
1.0
141
50.0
290
     0
  0
SCALE
  5
53
102
{ACAD_REACTORS
330
47
102
}
330
47
100
AcDbScale
 70
     0
300
1:100
140
1.0
141
100.0
290
     0
  0
SCALE
  5
54
102
{ACAD_REACTORS
330
47
102
}
330
47
100
AcDbScale
 70
     0
300
2:1
140
2.0
141
1.0
290
     0
  0
SCALE
  5
55
102
{ACAD_REACTORS
330
47
102
}
330
47
100
AcDbScale
 70
     0
300
4:1
140
4.0
141
1.0
290
     0
  0
SCALE
  5
56
102
{ACAD_REACTORS
330
47
102
}
330
47
100
AcDbScale
 70
     0
300
8:1
140
8.0
141
1.0
290
     0
  0
SCALE
  5
57
102
{ACAD_REACTORS
330
47
102
}
330
47
100
AcDbScale
 70
     0
300
10:1
140
10.0
141
1.0
290
     0
  0
SCALE
  5
58
102
{ACAD_REACTORS
330
47
102
}
330
47
100
AcDbScale
 70
     0
300
100:1
140
100.0
141
1.0
290
     0
  0
SCALE
  5
59
102
{ACAD_REACTORS
330
47
102
}
330
47
100
AcDbScale
 70
     0
300
1/128" = 1'-0"
140
0.0078125
141
12.0
290
     0
  0
SCALE
  5
5A
102
{ACAD_REACTORS
330
47
102
}
330
47
100
AcDbScale
 70
     0
300
1/64" = 1'-0"
140
0.015625
141
12.0
290
     0
  0
SCALE
  5
5B
102
{ACAD_REACTORS
330
47
102
}
330
47
100
AcDbScale
 70
     0
300
1/32" = 1'-0"
140
0.03125
141
12.0
290
     0
  0
SCALE
  5
5C
102
{ACAD_REACTORS
330
47
102
}
330
47
100
AcDbScale
 70
     0
300
1/16" = 1'-0"
140
0.0625
141
12.0
290
     0
  0
SCALE
  5
5D
102
{ACAD_REACTORS
330
47
102
}
330
47
100
AcDbScale
 70
     0
300
3/32" = 1'-0"
140
0.09375
141
12.0
290
     0
  0
SCALE
  5
5E
102
{ACAD_REACTORS
330
47
102
}
330
47
100
AcDbScale
 70
     0
300
1/8" = 1'-0"
140
0.125
141
12.0
290
     0
  0
SCALE
  5
5F
102
{ACAD_REACTORS
330
47
102
}
330
47
100
AcDbScale
 70
     0
300
3/16" = 1'-0"
140
0.1875
141
12.0
290
     0
  0
SCALE
  5
60
102
{ACAD_REACTORS
330
47
102
}
330
47
100
AcDbScale
 70
     0
300
1/4" = 1'-0"
140
0.25
141
12.0
290
     0
  0
SCALE
  5
61
102
{ACAD_REACTORS
330
47
102
}
330
47
100
AcDbScale
 70
     0
300
3/8" = 1'-0"
140
0.375
141
12.0
290
     0
  0
SCALE
  5
62
102
{ACAD_REACTORS
330
47
102
}
330
47
100
AcDbScale
 70
     0
300
1/2" = 1'-0"
140
0.5
141
12.0
290
     0
  0
SCALE
  5
63
102
{ACAD_REACTORS
330
47
102
}
330
47
100
AcDbScale
 70
     0
300
3/4" = 1'-0"
140
0.75
141
12.0
290
     0
  0
SCALE
  5
64
102
{ACAD_REACTORS
330
47
102
}
330
47
100
AcDbScale
 70
     0
300
1" = 1'-0"
140
1.0
141
12.0
290
     0
  0
SCALE
  5
65
102
{ACAD_REACTORS
330
47
102
}
330
47
100
AcDbScale
 70
     0
300
1-1/2" = 1'-0"
140
1.5
141
12.0
290
     0
  0
SCALE
  5
66
102
{ACAD_REACTORS
330
47
102
}
330
47
100
AcDbScale
 70
     0
300
3" = 1'-0"
140
3.0
141
12.0
290
     0
  0
SCALE
  5
67
102
{ACAD_REACTORS
330
47
102
}
330
47
100
AcDbScale
 70
     0
300
6" = 1'-0"
140
6.0
141
12.0
290
     0
  0
SCALE
  5
68
102
{ACAD_REACTORS
330
47
102
}
330
47
100
AcDbScale
 70
     0
300
1'-0" = 1'-0"
140
12.0
141
12.0
290
     0
  0
ENDSEC
  0
EOF
