  0
SECTION
  2
HEADER
  9
$ACADVER
  1
AC1015
  9
$ACADMAINTVER
 70
     6
  9
$DWGCODEPAGE
  3
ANSI_1252
  9
$INSBASE
 10
0.0
 20
0.0
 30
0.0
  9
$EXTMIN
 10
-1.8667815557
 20
-34.1873892888
 30
0.0
  9
$EXTMAX
 10
128.2406276432
 20
18.129273903
 30
0.0
  9
$LIMMIN
 10
0.0
 20
0.0
  9
$LIMMAX
 10
420.0
 20
297.0
  9
$ORTHOMODE
 70
     0
  9
$REGENMODE
 70
     1
  9
$FILLMODE
 70
     1
  9
$QTEXTMODE
 70
     0
  9
$MIRRTEXT
 70
     1
  9
$LTSCALE
 40
1.0
  9
$ATTMODE
 70
     1
  9
$TEXTSIZE
 40
3.5
  9
$TRACEWID
 40
1.0
  9
$TEXTSTYLE
  7
Standard
  9
$CLAYER
  8
0
  9
$CELTYPE
  6
ByLayer
  9
$CECOLOR
 62
   256
  9
$CELTSCALE
 40
1.0
  9
$DISPSILH
 70
     0
  9
$DIMSCALE
 40
1.0
  9
$DIMASZ
 40
6.0
  9
$DIMEXO
 40
1.0
  9
$DIMDLI
 40
3.75
  9
$DIMRND
 40
0.0
  9
$DIMDLE
 40
0.0
  9
$DIMEXE
 40
1.0
  9
$DIMTP
 40
0.0
  9
$DIMTM
 40
0.0
  9
$DIMTXT
 40
3.5
  9
$DIMCEN
 40
2.5
  9
$DIMTSZ
 40
0.0
  9
$DIMTOL
 70
     0
  9
$DIMLIM
 70
     0
  9
$DIMTIH
 70
     1
  9
$DIMTOH
 70
     1
  9
$DIMSE1
 70
     0
  9
$DIMSE2
 70
     0
  9
$DIMTAD
 70
     1
  9
$DIMZIN
 70
     0
  9
$DIMBLK
  1

  9
$DIMASO
 70
     1
  9
$DIMSHO
 70
     1
  9
$DIMPOST
  1

  9
$DIMAPOST
  1

  9
$DIMALT
 70
     0
  9
$DIMALTD
 70
     3
  9
$DIMALTF
 40
0.0393700787
  9
$DIMLFAC
 40
1.0
  9
$DIMTOFL
 70
     1
  9
$DIMTVP
 40
0.0
  9
$DIMTIX
 70
     0
  9
$DIMSOXD
 70
     0
  9
$DIMSAH
 70
     0
  9
$DIMBLK1
  1

  9
$DIMBLK2
  1

  9
$DIMSTYLE
  2
ISO-25
  9
$DIMCLRD
 70
     0
  9
$DIMCLRE
 70
     0
  9
$DIMCLRT
 70
     0
  9
$DIMTFAC
 40
1.0
  9
$DIMGAP
 40
1.524
  9
$DIMJUST
 70
     0
  9
$DIMSD1
 70
     0
  9
$DIMSD2
 70
     0
  9
$DIMTOLJ
 70
     0
  9
$DIMTZIN
 70
     0
  9
$DIMALTZ
 70
     0
  9
$DIMALTTZ
 70
     0
  9
$DIMUPT
 70
     0
  9
$DIMDEC
 70
     2
  9
$DIMTDEC
 70
     2
  9
$DIMALTU
 70
     2
  9
$DIMALTTD
 70
     3
  9
$DIMTXSTY
  7
Standard
  9
$DIMAUNIT
 70
     0
  9
$DIMADEC
 70
     2
  9
$DIMALTRND
 40
0.0
  9
$DIMAZIN
 70
     0
  9
$DIMDSEP
 70
    44
  9
$DIMATFIT
 70
     3
  9
$DIMFRAC
 70
     0
  9
$DIMLDRBLK
  1

  9
$DIMLUNIT
 70
     2
  9
$DIMLWD
 70
    -2
  9
$DIMLWE
 70
    -2
  9
$DIMTMOVE
 70
     0
  9
$LUNITS
 70
     2
  9
$LUPREC
 70
     2
  9
$SKETCHINC
 40
1.0
  9
$FILLETRAD
 40
10.0
  9
$AUNITS
 70
     0
  9
$AUPREC
 70
     2
  9
$MENU
  1
.
  9
$ELEVATION
 40
0.0
  9
$PELEVATION
 40
0.0
  9
$THICKNESS
 40
0.0
  9
$LIMCHECK
 70
     0
  9
$CHAMFERA
 40
0.0
  9
$CHAMFERB
 40
0.0
  9
$CHAMFERC
 40
0.0
  9
$CHAMFERD
 40
0.0
  9
$SKPOLY
 70
     0
  9
$TDCREATE
 40
2457356.822914792
  9
$TDUCREATE
 40
2457357.114581458
  9
$TDUPDATE
 40
2457356.822964282
  9
$TDUUPDATE
 40
2457357.114630949
  9
$TDINDWG
 40
0.0000000116
  9
$TDUSRTIMER
 40
0.0000000116
  9
$USRTIMER
 70
     1
  9
$ANGBASE
 50
0.0
  9
$ANGDIR
 70
     0
  9
$PDMODE
 70
     0
  9
$PDSIZE
 40
-1.0
  9
$PLINEWID
 40
0.0
  9
$SPLFRAME
 70
     0
  9
$SPLINETYPE
 70
     6
  9
$SPLINESEGS
 70
     8
  9
$HANDSEED
  5
98
  9
$SURFTAB1
 70
     6
  9
$SURFTAB2
 70
     6
  9
$SURFTYPE
 70
     6
  9
$SURFU
 70
     6
  9
$SURFV
 70
     6
  9
$UCSBASE
  2

  9
$UCSNAME
  2

  9
$UCSORG
 10
0.0
 20
0.0
 30
0.0
  9
$UCSXDIR
 10
1.0
 20
0.0
 30
0.0
  9
$UCSYDIR
 10
0.0
 20
1.0
 30
0.0
  9
$UCSORTHOREF
  2

  9
$UCSORTHOVIEW
 70
     0
  9
$UCSORGTOP
 10
0.0
 20
0.0
 30
0.0
  9
$UCSORGBOTTOM
 10
0.0
 20
0.0
 30
0.0
  9
$UCSORGLEFT
 10
0.0
 20
0.0
 30
0.0
  9
$UCSORGRIGHT
 10
0.0
 20
0.0
 30
0.0
  9
$UCSORGFRONT
 10
0.0
 20
0.0
 30
0.0
  9
$UCSORGBACK
 10
0.0
 20
0.0
 30
0.0
  9
$PUCSBASE
  2

  9
$PUCSNAME
  2

  9
$PUCSORG
 10
0.0
 20
0.0
 30
0.0
  9
$PUCSXDIR
 10
1.0
 20
0.0
 30
0.0
  9
$PUCSYDIR
 10
0.0
 20
1.0
 30
0.0
  9
$PUCSORTHOREF
  2

  9
$PUCSORTHOVIEW
 70
     0
  9
$PUCSORGTOP
 10
0.0
 20
0.0
 30
0.0
  9
$PUCSORGBOTTOM
 10
0.0
 20
0.0
 30
0.0
  9
$PUCSORGLEFT
 10
0.0
 20
0.0
 30
0.0
  9
$PUCSORGRIGHT
 10
0.0
 20
0.0
 30
0.0
  9
$PUCSORGFRONT
 10
0.0
 20
0.0
 30
0.0
  9
$PUCSORGBACK
 10
0.0
 20
0.0
 30
0.0
  9
$USERI1
 70
     0
  9
$USERI2
 70
     0
  9
$USERI3
 70
     0
  9
$USERI4
 70
     0
  9
$USERI5
 70
     0
  9
$USERR1
 40
0.0
  9
$USERR2
 40
0.0
  9
$USERR3
 40
0.0
  9
$USERR4
 40
0.0
  9
$USERR5
 40
0.0
  9
$WORLDVIEW
 70
     1
  9
$SHADEDGE
 70
     3
  9
$SHADEDIF
 70
    70
  9
$TILEMODE
 70
     1
  9
$MAXACTVP
 70
    64
  9
$PINSBASE
 10
0.0
 20
0.0
 30
0.0
  9
$PLIMCHECK
 70
     0
  9
$PEXTMIN
 10
1.0000000000E+20
 20
1.0000000000E+20
 30
1.0000000000E+20
  9
$PEXTMAX
 10
-1.0000000000E+20
 20
-1.0000000000E+20
 30
-1.0000000000E+20
  9
$PLIMMIN
 10
0.0
 20
0.0
  9
$PLIMMAX
 10
420.0
 20
297.0
  9
$UNITMODE
 70
     0
  9
$VISRETAIN
 70
     1
  9
$PLINEGEN
 70
     0
  9
$PSLTSCALE
 70
     1
  9
$TREEDEPTH
 70
  3020
  9
$CMLSTYLE
  2
Standard
  9
$CMLJUST
 70
     0
  9
$CMLSCALE
 40
20.0
  9
$PROXYGRAPHICS
 70
     1
  9
$MEASUREMENT
 70
     1
  9
$CELWEIGHT
370
    -1
  9
$ENDCAPS
280
     0
  9
$JOINSTYLE
280
     0
  9
$LWDISPLAY
290
     1
  9
$INSUNITS
 70
     4
  9
$HYPERLINKBASE
  1

  9
$STYLESHEET
  1

  9
$XEDIT
290
     1
  9
$CEPSNTYPE
380
     0
  9
$PSTYLEMODE
290
     1
  9
$FINGERPRINTGUID
  2
{FD589EC7-F376-4516-98C8-D01105E30ED3}
  9
$VERSIONGUID
  2
{FAEB1C32-E019-11D5-929B-00C0DF256EC4}
  9
$EXTNAMES
290
     1
  9
$PSVPSCALE
 40
0.0
  9
$OLESTARTUP
290
     0
  0
ENDSEC
  0
SECTION
  2
CLASSES
  0
CLASS
  1
ACDBDICTIONARYWDFLT
  2
AcDbDictionaryWithDefault
  3
ObjectDBX Classes
 90
        0
280
     0
281
     0
  0
CLASS
  1
VISUALSTYLE
  2
AcDbVisualStyle
  3
ObjectDBX Classes
 90
     4095
280
     0
281
     0
  0
CLASS
  1
MATERIAL
  2
AcDbMaterial
  3
ObjectDBX Classes
 90
     1153
280
     0
281
     0
  0
CLASS
  1
SCALE
  2
AcDbScale
  3
ObjectDBX Classes
 90
     1153
280
     0
281
     0
  0
CLASS
  1
TABLESTYLE
  2
AcDbTableStyle
  3
ObjectDBX Classes
 90
     4095
280
     0
281
     0
  0
CLASS
  1
MLEADERSTYLE
  2
AcDbMLeaderStyle
  3
ACDB_MLEADERSTYLE_CLASS
 90
     4095
280
     0
281
     0
  0
CLASS
  1
SUN
  2
AcDbSun
  3
SCENEOE
 90
     1153
280
     0
281
     0
  0
CLASS
  1
ACDBPLACEHOLDER
  2
AcDbPlaceHolder
  3
ObjectDBX Classes
 90
        0
280
     0
281
     0
  0
CLASS
  1
LAYOUT
  2
AcDbLayout
  3
ObjectDBX Classes
 90
        0
280
     0
281
     0
  0
ENDSEC
  0
SECTION
  2
TABLES
  0
TABLE
  2
VPORT
  5
8
330
0
100
AcDbSymbolTable
 70
     1
  0
VPORT
  5
29
330
8
100
AcDbSymbolTableRecord
100
AcDbViewportTableRecord
  2
*Active
 70
     0
 10
0.0
 20
0.0
 11
1.0
 21
1.0
 12
63.1869230438
 22
-8.0290576929
 13
0.0
 23
0.0
 14
10.0
 24
10.0
 15
10.0
 25
10.0
 16
0.0
 26
0.0
 36
1.0
 17
0.0
 27
0.0
 37
0.0
 40
53.3629964557
 41
2.4869210164
 42
50.0
 43
0.0
 44
0.0
 50
0.0
 51
0.0
 71
     0
 72
   100
 73
     1
 74
     3
 75
     0
 76
     0
 77
     0
 78
     0
281
     0
 65
     1
110
0.0
120
0.0
130
0.0
111
1.0
121
0.0
131
0.0
112
0.0
122
1.0
132
0.0
 79
     0
146
0.0
  0
ENDTAB
  0
TABLE
  2
LTYPE
  5
5
330
0
100
AcDbSymbolTable
 70
     6
  0
LTYPE
  5
14
330
5
100
AcDbSymbolTableRecord
100
AcDbLinetypeTableRecord
  2
ByBlock
 70
     0
  3

 72
    65
 73
     0
 40
0.0
  0
LTYPE
  5
15
330
5
100
AcDbSymbolTableRecord
100
AcDbLinetypeTableRecord
  2
ByLayer
 70
     0
  3

 72
    65
 73
     0
 40
0.0
  0
LTYPE
  5
16
330
5
100
AcDbSymbolTableRecord
100
AcDbLinetypeTableRecord
  2
Continuous
 70
     0
  3
Solid line
 72
    65
 73
     0
 40
0.0
  0
LTYPE
  5
6E
330
5
100
AcDbSymbolTableRecord
100
AcDbLinetypeTableRecord
  2
HIDDEN
 70
     0
  3
Hidden __ __ __ __ __ __ __ __ __ __ __ __ __ __
 72
    65
 73
     2
 40
1.905
 49
1.27
 74
     0
 49
-0.635
 74
     0
  0
LTYPE
  5
6F
330
5
100
AcDbSymbolTableRecord
100
AcDbLinetypeTableRecord
  2
PHANTOM
 70
     0
  3
Phantom ______  __  __  ______  __  __  ______
 72
    65
 73
     6
 40
12.7
 49
6.35
 74
     0
 49
-1.27
 74
     0
 49
1.27
 74
     0
 49
-1.27
 74
     0
 49
1.27
 74
     0
 49
-1.27
 74
     0
  0
LTYPE
  5
70
330
5
100
AcDbSymbolTableRecord
100
AcDbLinetypeTableRecord
  2
CENTER
 70
     0
  3
Center ____ _ ____ _ ____ _ ____ _ ____ _ ____
 72
    65
 73
     4
 40
10.16
 49
6.35
 74
     0
 49
-1.27
 74
     0
 49
1.27
 74
     0
 49
-1.27
 74
     0
  0
LTYPE
  5
71
330
5
100
AcDbSymbolTableRecord
100
AcDbLinetypeTableRecord
  2
CENTERX2
 70
     0
  3
Center (2x) ________  __  ________  __  _____
 72
    65
 73
     4
 40
20.32
 49
12.7
 74
     0
 49
-2.54
 74
     0
 49
2.54
 74
     0
 49
-2.54
 74
     0
  0
LTYPE
  5
72
330
5
100
AcDbSymbolTableRecord
100
AcDbLinetypeTableRecord
  2
DOT2
 70
     0
  3
Dot (.5x) ........................................
 72
    65
 73
     2
 40
0.635
 49
0.0
 74
     0
 49
-0.635
 74
     0
  0
ENDTAB
  0
TABLE
  2
LAYER
  5
2
330
0
100
AcDbSymbolTable
 70
     1
  0
LAYER
  5
10
330
2
100
AcDbSymbolTableRecord
100
AcDbLayerTableRecord
  2
0
 70
     0
 62
     7
  6
Continuous
370
    -3
390
F
  0
ENDTAB
  0
TABLE
  2
STYLE
  5
3
330
0
100
AcDbSymbolTable
 70
     1
  0
STYLE
  5
11
330
3
100
AcDbSymbolTableRecord
100
AcDbTextStyleTableRecord
  2
Standard
 70
     0
 40
0.0
 41
1.0
 50
0.0
 71
     0
 42
3.5
  3
txt
  4

  0
ENDTAB
  0
TABLE
  2
VIEW
  5
6
330
0
100
AcDbSymbolTable
 70
     0
  0
ENDTAB
  0
TABLE
  2
UCS
  5
7
330
0
100
AcDbSymbolTable
 70
     0
  0
ENDTAB
  0
TABLE
  2
APPID
  5
9
330
0
100
AcDbSymbolTable
 70
     1
  0
APPID
  5
12
330
9
100
AcDbSymbolTableRecord
100
AcDbRegAppTableRecord
  2
ACAD
 70
     0
  0
ENDTAB
  0
TABLE
  2
DIMSTYLE
  5
A
330
0
100
AcDbSymbolTable
 70
     1
100
AcDbDimStyleTable
  0
DIMSTYLE
105
27
330
A
100
AcDbSymbolTableRecord
100
AcDbDimStyleTableRecord
  2
ISO-25
 70
     0
 41
2.5
 42
0.625
 43
3.75
 44
1.25
 73
     0
 74
     0
 77
     1
 78
     8
140
2.5
141
2.5
143
0.0393700787
147
0.625
171
     3
172
     1
178
     0
271
     2
272
     2
274
     3
278
    44
283
     0
284
     8
340
11
  0
ENDTAB
  0
TABLE
  2
BLOCK_RECORD
  5
1
330
0
100
AcDbSymbolTable
 70
     1
  0
BLOCK_RECORD
  5
1F
330
1
100
AcDbSymbolTableRecord
100
AcDbBlockTableRecord
  2
*Model_Space
340
22
  0
BLOCK_RECORD
  5
1B
330
1
100
AcDbSymbolTableRecord
100
AcDbBlockTableRecord
  2
*Paper_Space
340
1E
  0
BLOCK_RECORD
  5
23
330
1
100
AcDbSymbolTableRecord
100
AcDbBlockTableRecord
  2
*Paper_Space0
340
26
  0
ENDTAB
  0
ENDSEC
  0
SECTION
  2
BLOCKS
  0
BLOCK
  5
20
330
1F
100
AcDbEntity
  8
0
100
AcDbBlockBegin
  2
*Model_Space
 70
     0
 10
0.0
 20
0.0
 30
0.0
  3
*Model_Space
  1

  0
ENDBLK
  5
21
330
1F
100
AcDbEntity
  8
0
100
AcDbBlockEnd
  0
BLOCK
  5
1C
330
1B
100
AcDbEntity
 67
     1
  8
0
100
AcDbBlockBegin
  2
*Paper_Space
 70
     0
 10
0.0
 20
0.0
 30
0.0
  3
*Paper_Space
  1

  0
ENDBLK
  5
1D
330
1B
100
AcDbEntity
 67
     1
  8
0
100
AcDbBlockEnd
  0
BLOCK
  5
24
330
23
100
AcDbEntity
  8
0
100
AcDbBlockBegin
  2
*Paper_Space0
 70
     0
 10
0.0
 20
0.0
 30
0.0
  3
*Paper_Space0
  1

  0
ENDBLK
  5
25
330
23
100
AcDbEntity
  8
0
100
AcDbBlockEnd
  0
ENDSEC
  0
SECTION
  2
ENTITIES
  0
LWPOLYLINE
  5
75
330
1F
100
AcDbEntity
  8
0
  6
Continuous
 62
     7
370
    15
100
AcDbPolyline
 90
       17
 70
   128
 43
0.0
 10
15.7331390657
 20
3.680690277
 10
15.6994779052
 20
3.8538505215
 10
15.6036190304
 20
4.0189454528
 10
15.460156086
 20
4.1508408641
 10
15.2909300048
 20
4.2294568747
 10
15.1217039236
 20
4.2428249097
 10
14.9782409792
 20
4.1889098069
 10
14.8823821044
 20
4.0759196519
 10
14.848720944
 20
3.9210561717
 10
14.8823821044
 20
3.7478959272
 10
14.9782409792
 20
3.5828009959
 10
15.1217039236
 20
3.4509055846
 10
15.2909300048
 20
3.372289574
 10
15.460156086
 20
3.358921539
 10
15.6036190304
 20
3.4128366418
 10
15.6994779052
 20
3.5258267968
 10
15.7331390657
 20
3.680690277
  0
LWPOLYLINE
  5
76
330
1F
100
AcDbEntity
  8
0
  6
Continuous
 62
     7
370
    15
100
AcDbPolyline
 90
       17
 70
   128
 43
0.0
 10
9.0814081187
 20
11.8306778763
 10
9.0477469582
 20
12.0038381208
 10
8.9518880834
 20
12.168933052
 10
8.8084251391
 20
12.3008284633
 10
8.6391990578
 20
12.3794444739
 10
8.4699729766
 20
12.3928125089
 10
8.3265100322
 20
12.3388974061
 10
8.2306511574
 20
12.2259072512
 10
8.196989997
 20
12.0710437709
 10
8.2306511574
 20
11.8978835264
 10
8.3265100322
 20
11.7327885952
 10
8.4699729766
 20
11.6008931839
 10
8.6391990578
 20
11.5222771732
 10
8.8084251391
 20
11.5089091383
 10
8.9518880834
 20
11.5628242411
 10
9.0477469582
 20
11.675814396
 10
9.0814081187
 20
11.8306778763
  0
LWPOLYLINE
  5
77
330
1F
100
AcDbEntity
  8
0
  6
Continuous
 62
     7
370
    15
100
AcDbPolyline
 90
       40
 70
   128
 43
0.0
 10
12.2839083911
 20
4.6181172663
 10
12.2380964615
 20
5.1805651856
 10
12.1018471777
 20
5.7533474008
 10
11.8786893246
 20
6.3216291536
 10
11.5744025732
 20
6.8706922449
 10
11.1968677907
 20
7.3863162292
 10
10.7558629296
 20
7.8551467161
 10
10.2628097841
 20
8.2650412422
 10
9.7304781718
 20
8.6053837546
 10
9.1726552018
 20
8.867359561
 10
8.6037881959
 20
9.0441836257
 10
8.0386105109
 20
9.1312762982
 10
7.4917599519
 20
9.1263819242
 10
6.9773996611
 20
9.0296272652
 10
6.5088512998
 20
8.8435182161
 10
6.0982500246
 20
8.5728749037
 10
5.7562301927
 20
8.2247068474
 10
5.4916499382
 20
7.808031417
 10
5.3113617507
 20
7.3336402874
 10
5.2200349995
 20
6.8138199396
 10
5.2200349995
 20
6.2620334476
 10
5.3113617507
 20
5.6925717916
 10
5.4916499382
 20
5.1201837295
 10
5.7562301927
 20
4.5596938114
 10
6.0982500246
 20
4.0256184317
 10
6.5088512998
 20
3.5317898622
 10
6.9773996611
 20
3.0909980036
 10
7.4917599519
 20
2.7146591333
 10
8.0386105109
 20
2.4125202305
 10
8.6037881959
 20
2.1924065341
 10
9.1726552018
 20
2.0600188731
 10
9.7304781718
 20
2.0187860184
 10
10.2628097841
 20
2.0697758793
 10
10.7558629296
 20
2.2116678453
 10
11.1968677907
 20
2.4407869888
 10
11.5744025732
 20
2.7511992445
 10
11.8786893246
 20
3.1348650979
 10
12.1018471777
 20
3.5818478051
 10
12.2380964615
 20
4.0805707486
 10
12.2839083911
 20
4.6181172663
  0
LWPOLYLINE
  5
78
330
1F
100
AcDbEntity
  8
0
  6
Continuous
 62
     7
370
    15
100
AcDbPolyline
 90
       25
 70
   128
 43
0.0
 10
74.6353859694
 20
-18.3278494139
 10
74.5901822443
 20
-17.9827871766
 10
74.4576516283
 20
-17.6366695528
 10
74.2468258637
 20
-17.3130838866
 10
73.9720723781
 20
-17.0340820063
 10
73.6521151674
 20
-16.818677429
 10
73.3087587869
 20
-16.6815496208
 10
72.9654024063
 20
-16.632043615
 10
72.6454451956
 20
-16.6735331643
 10
72.37069171
 20
-16.8031908243
 10
72.1598659455
 20
-17.0121806398
 10
72.0273353294
 20
-17.2862603003
 10
71.9821316043
 20
-17.6067517298
 10
72.0273353294
 20
-17.9518139671
 10
72.1598659455
 20
-18.2979315909
 10
72.37069171
 20
-18.6215172571
 10
72.6454451956
 20
-18.9005191374
 10
72.9654024063
 20
-19.1159237146
 10
73.3087587869
 20
-19.2530515229
 10
73.6521151674
 20
-19.3025575286
 10
73.9720723781
 20
-19.2610679794
 10
74.2468258637
 20
-19.1314103194
 10
74.4576516283
 20
-18.9224205039
 10
74.5901822443
 20
-18.6483408434
 10
74.6353859694
 20
-18.3278494139
  0
LWPOLYLINE
  5
79
330
1F
100
AcDbEntity
  8
0
  6
Continuous
 62
     7
370
    15
100
AcDbPolyline
 90
       25
 70
   128
 43
0.0
 10
52.5249329274
 20
-12.3187020468
 10
52.4797292024
 20
-11.9736398095
 10
52.3471985863
 20
-11.6275221857
 10
52.1363728218
 20
-11.3039365195
 10
51.8616193362
 20
-11.0249346392
 10
51.5416621255
 20
-10.8095300619
 10
51.1983057449
 20
-10.6724022537
 10
50.8549493643
 20
-10.6228962479
 10
50.5349921537
 20
-10.6643857972
 10
50.2602386681
 20
-10.7940434572
 10
50.0494129035
 20
-11.0030332727
 10
49.9168822875
 20
-11.2771129332
 10
49.8716785624
 20
-11.5976043627
 10
49.9168822875
 20
-11.9426666
 10
50.0494129035
 20
-12.2887842238
 10
50.2602386681
 20
-12.61236989
 10
50.5349921537
 20
-12.8913717703
 10
50.8549493643
 20
-13.1067763475
 10
51.1983057449
 20
-13.2439041558
 10
51.5416621255
 20
-13.2934101615
 10
51.8616193362
 20
-13.2519206123
 10
52.1363728218
 20
-13.1222629523
 10
52.3471985863
 20
-12.9132731368
 10
52.4797292024
 20
-12.6391934763
 10
52.5249329274
 20
-12.3187020468
  0
LWPOLYLINE
  5
7A
330
1F
100
AcDbEntity
  8
0
  6
Continuous
 62
     7
370
    15
100
AcDbPolyline
 90
       17
 70
   128
 43
0.0
 10
122.7477317886
 20
-25.4035829798
 10
122.7140706282
 20
-25.2304227352
 10
122.6182117534
 20
-25.065327804
 10
122.474748809
 20
-24.9334323927
 10
122.3055227278
 20
-24.8548163821
 10
122.1362966466
 20
-24.8414483471
 10
121.9928337022
 20
-24.8953634499
 10
121.8969748274
 20
-25.0083536048
 10
121.863313667
 20
-25.1632170851
 10
121.8969748274
 20
-25.3363773296
 10
121.9928337022
 20
-25.5014722608
 10
122.1362966466
 20
-25.6333676721
 10
122.3055227278
 20
-25.7119836828
 10
122.474748809
 20
-25.7253517177
 10
122.6182117534
 20
-25.6714366149
 10
122.7140706282
 20
-25.55844646
 10
122.7477317886
 20
-25.4035829798
  0
LWPOLYLINE
  5
7B
330
1F
100
AcDbEntity
  8
0
  6
Continuous
 62
     7
370
    15
100
AcDbPolyline
 90
       17
 70
   128
 43
0.0
 10
116.2030376882
 20
-17.2818373339
 10
116.1693765278
 20
-17.1086770894
 10
116.073517653
 20
-16.9435821581
 10
115.9300547086
 20
-16.8116867468
 10
115.7608286274
 20
-16.7330707362
 10
115.5916025462
 20
-16.7197027012
 10
115.4481396018
 20
-16.773617804
 10
115.352280727
 20
-16.886607959
 10
115.3186195665
 20
-17.0414714392
 10
115.352280727
 20
-17.2146316837
 10
115.4481396018
 20
-17.379726615
 10
115.5916025462
 20
-17.5116220263
 10
115.7608286274
 20
-17.5902380369
 10
115.9300547086
 20
-17.6036060719
 10
116.073517653
 20
-17.5496909691
 10
116.1693765278
 20
-17.4367008141
 10
116.2030376882
 20
-17.2818373339
  0
LWPOLYLINE
  5
7D
330
1F
100
AcDbEntity
  8
0
  6
Continuous
 62
     7
370
    15
100
AcDbPolyline
 90
       35
 70
   128
 43
0.0
 10
115.7608286274
 20
-33.7907000202
 10
116.7400743374
 20
-34.0129597264
 10
117.7109654683
 20
-34.145566601
 10
118.6652187192
 20
-34.1873892888
 10
119.5946927379
 20
-34.1380709735
 10
120.4914575799
 20
-33.9980324216
 10
121.3478623636
 20
-33.7684683925
 10
122.1566005453
 20
-33.4513374457
 10
122.9107722562
 20
-33.0493452305
 10
123.603943169
 20
-32.5659214029
 10
124.230199394
 20
-32.0051903644
 10
124.7841979338
 20
-31.3719360745
 10
125.2612122682
 20
-30.6715612356
 10
125.6571726791
 20
-29.9100411989
 10
125.968700972
 20
-29.0938729848
 10
126.1931392972
 20
-28.2300198527
 10
126.328572826
 20
-27.325851893
 10
126.3738460875
 20
-26.389083148
 10
126.328572826
 20
-25.4277057981
 10
126.1931392972
 20
-24.4499219761
 10
125.968700972
 20
-23.4640737887
 10
125.6571726791
 20
-22.4785721451
 10
125.2612122682
 20
-21.5018249978
 10
124.7841979338
 20
-20.5421656091
 10
124.230199394
 20
-19.6077814546
 10
123.603943169
 20
-18.7066443702
 10
122.9107722562
 20
-17.8464425401
 10
122.1566005453
 20
-17.0345149028
 10
121.3478623636
 20
-16.2777885387
 10
120.4914575799
 20
-15.5827195703
 10
119.5946927379
 20
-14.9552380809
 10
118.6652187192
 20
-14.4006975215
 10
117.7109654683
 20
-13.9238290365
 10
116.7400743374
 20
-13.5287010997
 10
115.7608286274
 20
-13.2186848033
  0
LWPOLYLINE
  5
7F
330
1F
100
AcDbEntity
  8
0
  6
Continuous
 62
     7
370
    15
100
AcDbPolyline
 90
       35
 70
   128
 43
0.0
 10
8.7462359044
 20
15.8655884534
 10
7.7669901944
 20
16.0878481596
 10
6.7960990635
 20
16.2204550342
 10
5.8418458126
 20
16.2622777221
 10
4.9123717938
 20
16.2129594068
 10
4.0156069519
 20
16.0729208548
 10
3.1592021682
 20
15.8433568258
 10
2.3504639864
 20
15.526225879
 10
1.5962922756
 20
15.1242336638
 10
0.9031213628
 20
14.6408098361
 10
0.2768651378
 20
14.0800787976
 10
-0.277133402
 20
13.4468245077
 10
-0.7541477364
 20
12.7464496689
 10
-1.1501081473
 20
11.9849296321
 10
-1.4616364402
 20
11.168761418
 10
-1.6860747654
 20
10.304908286
 10
-1.8215082943
 20
9.4007403263
 10
-1.8667815557
 20
8.4639715812
 10
-1.8215082943
 20
7.5025942314
 10
-1.6860747654
 20
6.5248104094
 10
-1.4616364402
 20
5.538962222
 10
-1.1501081473
 20
4.5534605784
 10
-0.7541477364
 20
3.5767134311
 10
-0.277133402
 20
2.6170540424
 10
0.2768651378
 20
1.6826698878
 10
0.9031213628
 20
0.7815328035
 10
1.5962922756
 20
-0.0786690267
 10
2.3504639864
 20
-0.890596664
 10
3.1592021682
 20
-1.6473230281
 10
4.0156069519
 20
-2.3423919965
 10
4.9123717938
 20
-2.9698734858
 10
5.8418458126
 20
-3.5244140452
 10
6.7960990635
 20
-4.0012825303
 10
7.7669901944
 20
-4.3964104671
 10
8.7462359044
 20
-4.7064267634
  0
LWPOLYLINE
  5
80
330
1F
100
AcDbEntity
  8
0
  6
Continuous
 62
     7
370
    15
100
AcDbPolyline
 90
       40
 70
   128
 43
0.0
 10
119.2985011141
 20
-24.4661559905
 10
119.2526891845
 20
-23.9037080712
 10
119.1164399007
 20
-23.3309258559
 10
118.8932820475
 20
-22.7626441032
 10
118.5889952962
 20
-22.2135810118
 10
118.2114605137
 20
-21.6979570276
 10
117.7704556526
 20
-21.2291265407
 10
117.2774025071
 20
-20.8192320146
 10
116.7450708948
 20
-20.4788895022
 10
116.1872479248
 20
-20.2169136957
 10
115.6183809189
 20
-20.0400896311
 10
115.0532032339
 20
-19.9529969585
 10
114.5063526748
 20
-19.9578913326
 10
113.991992384
 20
-20.0546459916
 10
113.5234440228
 20
-20.2407550406
 10
113.1128427476
 20
-20.5113983531
 10
112.7708229157
 20
-20.8595664094
 10
112.5062426612
 20
-21.2762418397
 10
112.3259544737
 20
-21.7506329693
 10
112.2346277225
 20
-22.2704533171
 10
112.2346277225
 20
-22.8222398092
 10
112.3259544737
 20
-23.3917014651
 10
112.5062426612
 20
-23.9640895272
 10
112.7708229157
 20
-24.5245794454
 10
113.1128427476
 20
-25.0586548251
 10
113.5234440228
 20
-25.5524833945
 10
113.991992384
 20
-25.9932752532
 10
114.5063526748
 20
-26.3696141234
 10
115.0532032339
 20
-26.6717530262
 10
115.6183809189
 20
-26.8918667227
 10
116.1872479248
 20
-27.0242543837
 10
116.7450708948
 20
-27.0654872384
 10
117.2774025071
 20
-27.0144973774
 10
117.7704556526
 20
-26.8726054115
 10
118.2114605137
 20
-26.643486268
 10
118.5889952962
 20
-26.3330740123
 10
118.8932820475
 20
-25.9494081588
 10
119.1164399007
 20
-25.5024254517
 10
119.2526891845
 20
-25.0037025081
 10
119.2985011141
 20
-24.4661559905
  0
LWPOLYLINE
  5
81
330
1F
100
AcDbEntity
  8
0
  6
Continuous
 62
     7
370
    15
100
AcDbPolyline
 90
       17
 70
   128
 43
0.0
 10
116.3100745348
 20
-29.9961553377
 10
116.2764133744
 20
-29.8229950932
 10
116.1805544996
 20
-29.6579001619
 10
116.0370915552
 20
-29.5260047506
 10
115.867865474
 20
-29.44738874
 10
115.6986393927
 20
-29.434020705
 10
115.5551764483
 20
-29.4879358078
 10
115.4593175736
 20
-29.6009259628
 10
115.4256564131
 20
-29.755789443
 10
115.4593175736
 20
-29.9289496875
 10
115.5551764483
 20
-30.0940446188
 10
115.6986393927
 20
-30.2259400301
 10
115.867865474
 20
-30.3045560407
 10
116.0370915552
 20
-30.3179240757
 10
116.1805544996
 20
-30.2640089729
 10
116.2764133744
 20
-30.1510188179
 10
116.3100745348
 20
-29.9961553377
  0
LWPOLYLINE
  5
82
330
1F
100
AcDbEntity
  8
0
  6
Continuous
 62
     7
370
    15
100
AcDbPolyline
 90
       17
 70
   128
 43
0.0
 10
109.6583435878
 20
-21.8461677384
 10
109.6246824274
 20
-21.6730074939
 10
109.5288235526
 20
-21.5079125627
 10
109.3853606082
 20
-21.3760171514
 10
109.216134527
 20
-21.2974011407
 10
109.0469084457
 20
-21.2840331058
 10
108.9034455013
 20
-21.3379482086
 10
108.8075866266
 20
-21.4509383635
 10
108.7739254661
 20
-21.6058018438
 10
108.8075866266
 20
-21.7789620883
 10
108.9034455013
 20
-21.9440570195
 10
109.0469084457
 20
-22.0759524308
 10
109.216134527
 20
-22.1545684414
 10
109.3853606082
 20
-22.1679364764
 10
109.5288235526
 20
-22.1140213736
 10
109.6246824274
 20
-22.0010312187
 10
109.6583435878
 20
-21.8461677384
  0
LWPOLYLINE
  5
83
330
1F
100
AcDbEntity
  8
0
  6
Continuous
 62
     7
370
    15
100
AcDbPolyline
 90
       25
 70
   128
 43
0.0
 10
52.5249329274
 20
-0.3183598369
 10
52.4797292024
 20
0.0267024003
 10
52.3471985863
 20
0.3728200241
 10
52.1363728218
 20
0.6964056903
 10
51.8616193362
 20
0.9754075706
 10
51.5416621255
 20
1.1908121479
 10
51.1983057449
 20
1.3279399561
 10
50.8549493643
 20
1.3774459619
 10
50.5349921537
 20
1.3359564127
 10
50.2602386681
 20
1.2062987526
 10
50.0494129035
 20
0.9973089371
 10
49.9168822875
 20
0.7232292766
 10
49.8716785624
 20
0.4027378471
 10
49.9168822875
 20
0.0576756098
 10
50.0494129035
 20
-0.2884420139
 10
50.2602386681
 20
-0.6120276802
 10
50.5349921537
 20
-0.8910295605
 10
50.8549493643
 20
-1.1064341377
 10
51.1983057449
 20
-1.243561946
 10
51.5416621255
 20
-1.2930679517
 10
51.8616193362
 20
-1.2515784025
 10
52.1363728218
 20
-1.1219207425
 10
52.3471985863
 20
-0.9129309269
 10
52.4797292024
 20
-0.6388512665
 10
52.5249329274
 20
-0.3183598369
  0
LWPOLYLINE
  5
84
330
1F
100
AcDbEntity
  8
0
  6
Continuous
 62
     7
370
    15
100
AcDbPolyline
 90
       25
 70
   128
 43
0.0
 10
74.6353859694
 20
-6.327507204
 10
74.5901822443
 20
-5.9824449668
 10
74.4576516283
 20
-5.636327343
 10
74.2468258637
 20
-5.3127416767
 10
73.9720723781
 20
-5.0337397965
 10
73.6521151674
 20
-4.8183352192
 10
73.3087587869
 20
-4.681207411
 10
72.9654024063
 20
-4.6317014052
 10
72.6454451956
 20
-4.6731909544
 10
72.37069171
 20
-4.8028486145
 10
72.1598659455
 20
-5.01183843
 10
72.0273353294
 20
-5.2859180905
 10
71.9821316043
 20
-5.60640952
 10
72.0273353294
 20
-5.9514717572
 10
72.1598659455
 20
-6.297589381
 10
72.37069171
 20
-6.6211750473
 10
72.6454451956
 20
-6.9001769275
 10
72.9654024063
 20
-7.1155815048
 10
73.3087587869
 20
-7.2527093131
 10
73.6521151674
 20
-7.3022153188
 10
73.9720723781
 20
-7.2607257696
 10
74.2468258637
 20
-7.1310681096
 10
74.4576516283
 20
-6.922078294
 10
74.5901822443
 20
-6.6479986336
 10
74.6353859694
 20
-6.327507204
  0
LWPOLYLINE
  5
85
330
1F
100
AcDbEntity
  8
0
  6
Continuous
 62
     7
370
    15
100
AcDbPolyline
 90
       17
 70
   128
 43
0.0
 10
9.1884449652
 20
-0.8836401275
 10
9.1547838048
 20
-0.710479883
 10
9.05892493
 20
-0.5453849518
 10
8.9154619856
 20
-0.4134895405
 10
8.7462359044
 20
-0.3348735298
 10
8.5770098232
 20
-0.3215054949
 10
8.4335468788
 20
-0.3754205977
 10
8.337688004
 20
-0.4884107526
 10
8.3040268436
 20
-0.6432742329
 10
8.337688004
 20
-0.8164344774
 10
8.4335468788
 20
-0.9815294086
 10
8.5770098232
 20
-1.1134248199
 10
8.7462359044
 20
-1.1920408305
 10
8.9154619856
 20
-1.2054088655
 10
9.05892493
 20
-1.1514937627
 10
9.1547838048
 20
-1.0385036078
 10
9.1884449652
 20
-0.8836401275
  0
LWPOLYLINE
  5
86
330
1F
100
AcDbEntity
  8
0
  6
Continuous
 62
     7
370
    15
100
AcDbPolyline
 90
       17
 70
   128
 43
0.0
 10
2.6437508648
 20
7.2381055183
 10
2.6100897044
 20
7.4112657628
 10
2.5142308296
 20
7.5763606941
 10
2.3707678852
 20
7.7082561054
 10
2.201541804
 20
7.786872116
 10
2.0323157228
 20
7.800240151
 10
1.8888527784
 20
7.7463250482
 10
1.7929939036
 20
7.6333348932
 10
1.7593327432
 20
7.478471413
 10
1.7929939036
 20
7.3053111685
 10
1.8888527784
 20
7.1402162372
 10
2.0323157228
 20
7.0083208259
 10
2.201541804
 20
6.9297048153
 10
2.3707678852
 20
6.9163367803
 10
2.5142308296
 20
6.9702518831
 10
2.6100897044
 20
7.0832420381
 10
2.6437508648
 20
7.2381055183
  0
LWPOLYLINE
  5
88
330
1F
100
AcDbEntity
  8
0
  6
Continuous
 62
     7
370
    15
100
AcDbPolyline
 90
       26
 70
   128
 43
0.0
 10
126.0093480869
 20
-30.2702328594
 10
126.0969809497
 20
-30.1831543371
 10
126.6509794895
 20
-29.5499000473
 10
127.1279938239
 20
-28.8495252084
 10
127.5239542349
 20
-28.0880051717
 10
127.8354825277
 20
-27.2718369576
 10
128.0599208529
 20
-26.4079838255
 10
128.1953543818
 20
-25.5038158658
 10
128.2406276432
 20
-24.5670471207
 10
128.1953543818
 20
-23.6056697709
 10
128.0599208529
 20
-22.6278859489
 10
127.8354825277
 20
-21.6420377615
 10
127.5239542349
 20
-20.6565361179
 10
127.1279938239
 20
-19.6797889706
 10
126.6509794895
 20
-18.7201295819
 10
126.0969809497
 20
-17.7857454273
 10
125.4707247248
 20
-16.884608343
 10
124.7775538119
 20
-16.0244065129
 10
124.0233821011
 20
-15.2124788756
 10
123.2146439193
 20
-14.4557525115
 10
122.3582391356
 20
-13.760683543
 10
121.4614742937
 20
-13.1332020537
 10
120.5320002749
 20
-12.5786614943
 10
119.577747024
 20
-12.1017930093
 10
118.6068558931
 20
-11.7066650725
 10
117.6276101831
 20
-11.3966487761
  0
LINE
  5
8E
330
1F
100
AcDbEntity
  8
0
  6
Continuous
 62
     7
370
    15
100
AcDbLine
 10
124.1425665312
 20
-32.0922688866
 30
0.0
 11
126.0093480869
 21
-30.2702328594
 31
0.0
  0
LINE
  5
8F
330
1F
100
AcDbEntity
  8
0
  6
Continuous
 62
     7
370
    15
100
AcDbLine
 10
2.2312795563
 20
15.9891933471
 30
0.0
 11
0.3644980006
 21
14.1671573199
 31
0.0
  0
LINE
  5
90
330
1F
100
AcDbEntity
  8
0
  6
Continuous
 62
     7
370
    15
100
AcDbLine
 10
115.7608286274
 20
-13.2186848033
 30
0.0
 11
8.7462359044
 21
15.8655884534
 31
0.0
  0
LINE
  5
91
330
1F
100
AcDbEntity
  8
0
  6
Continuous
 62
     7
370
    15
100
AcDbLine
 10
8.7462359044
 20
-4.7064267634
 30
0.0
 11
115.7608286274
 21
-33.7907000202
 31
0.0
  0
LINE
  5
92
330
1F
100
AcDbEntity
  8
0
  6
Continuous
 62
     7
370
    15
100
AcDbLine
 10
115.7608286274
 20
-13.2186848033
 30
0.0
 11
117.6276101831
 21
-11.3966487761
 31
0.0
  0
LINE
  5
93
330
1F
100
AcDbEntity
  8
0
  6
Continuous
 62
     7
370
    15
100
AcDbLine
 10
8.7462359044
 20
15.8655884534
 30
0.0
 11
10.6130174601
 21
17.6876244806
 31
0.0
  0
LINE
  5
94
330
1F
100
AcDbEntity
  8
0
  6
Continuous
 62
     7
370
    15
100
AcDbLine
 10
117.6276101831
 20
-11.3966487761
 30
0.0
 11
10.6130174601
 21
17.6876244806
 31
0.0
  0
ARC
  5
95
330
1F
100
AcDbEntity
  8
0
  6
Continuous
 62
     7
370
    15
100
AcDbCircle
 10
118.6620613646
 20
-20.6730003189
 30
0.0
 40
4.538867925744434
100
AcDbArc
 50
171.5938789238
 51
277.0161883142
  0
ARC
  5
96
330
1F
100
AcDbEntity
  8
0
  6
Continuous
 62
     7
370
    15
100
AcDbCircle
 10
7.8972660957
 20
9.5587207646
 30
0.0
 40
8.570553138417502
100
AcDbArc
 50
71.5262576906
 51
131.3837643804
  0
ARC
  5
97
330
1F
100
AcDbEntity
  8
0
  6
Continuous
 62
     7
370
    15
100
AcDbCircle
 10
11.6474686416
 20
8.4112729379
 30
0.0
 40
4.538867925742094
100
AcDbArc
 50
171.5938789237
 51
277.0161883144
  0
ENDSEC
  0
SECTION
  2
OBJECTS
  0
DICTIONARY
  5
C
330
0
100
AcDbDictionary
281
     1
  3
ACAD_GROUP
350
D
  3
ACAD_LAYOUT
350
1A
  3
ACAD_MLINESTYLE
350
17
  3
ACAD_PLOTSETTINGS
350
19
  3
ACAD_PLOTSTYLENAME
350
E
  3
ACAD_SCALELIST
350
47
  0
DICTIONARY
  5
D
102
{ACAD_REACTORS
330
C
102
}
330
C
100
AcDbDictionary
281
     1
  0
DICTIONARY
  5
1A
102
{ACAD_REACTORS
330
C
102
}
330
C
100
AcDbDictionary
281
     1
  3
Layout1
350
1E
  3
Layout2
350
26
  3
Model
350
22
  0
DICTIONARY
  5
17
102
{ACAD_REACTORS
330
C
102
}
330
C
100
AcDbDictionary
281
     1
  3
Standard
350
18
  0
DICTIONARY
  5
19
102
{ACAD_REACTORS
330
C
102
}
330
C
100
AcDbDictionary
281
     1
  0
ACDBDICTIONARYWDFLT
  5
E
102
{ACAD_REACTORS
330
C
102
}
330
C
100
AcDbDictionary
281
     1
  3
Normal
350
F
100
AcDbDictionaryWithDefault
340
F
  0
DICTIONARY
  5
47
102
{ACAD_REACTORS
330
C
102
}
330
C
100
AcDbDictionary
281
     1
  3
A0
350
48
  3
A1
350
49
  3
A2
350
4A
  3
A3
350
4B
  3
A4
350
4C
  3
A5
350
4D
  3
A6
350
4E
  3
A7
350
4F
  3
A8
350
50
  3
A9
350
51
  3
B0
350
52
  3
B1
350
53
  3
B2
350
54
  3
B3
350
55
  3
B4
350
56
  3
B5
350
57
  3
B6
350
58
  3
B7
350
59
  3
B8
350
5A
  3
B9
350
5B
  3
C0
350
5C
  3
C1
350
5D
  3
C2
350
5E
  3
C3
350
5F
  3
C4
350
60
  3
C5
350
61
  3
C6
350
62
  3
C7
350
63
  3
C8
350
64
  3
C9
350
65
  3
D0
350
66
  3
D1
350
67
  3
D2
350
68
  0
LAYOUT
  5
1E
102
{ACAD_REACTORS
330
1A
102
}
330
1A
100
AcDbPlotSettings
  1

  2
none_device
  4

  6

 40
0.0
 41
0.0
 42
0.0
 43
0.0
 44
0.0
 45
0.0
 46
0.0
 47
0.0
 48
0.0
 49
0.0
140
0.0
141
0.0
142
1.0
143
1.0
 70
   688
 72
     1
 73
     0
 74
     5
  7

 75
    16
147
1.0
148
0.0
149
0.0
100
AcDbLayout
  1
Layout1
 70
     1
 71
     1
 10
0.0
 20
0.0
 11
420.0
 21
297.0
 12
0.0
 22
0.0
 32
0.0
 14
1.0000000000E+20
 24
1.0000000000E+20
 34
1.0000000000E+20
 15
-1.0000000000E+20
 25
-1.0000000000E+20
 35
-1.0000000000E+20
146
0.0
 13
0.0
 23
0.0
 33
0.0
 16
1.0
 26
0.0
 36
0.0
 17
0.0
 27
1.0
 37
0.0
 76
     0
330
1B
  0
LAYOUT
  5
26
102
{ACAD_REACTORS
330
1A
102
}
330
1A
100
AcDbPlotSettings
  1

  2
none_device
  4

  6

 40
0.0
 41
0.0
 42
0.0
 43
0.0
 44
0.0
 45
0.0
 46
0.0
 47
0.0
 48
0.0
 49
0.0
140
0.0
141
0.0
142
1.0
143
1.0
 70
   688
 72
     1
 73
     0
 74
     5
  7

 75
    16
147
1.0
148
0.0
149
0.0
100
AcDbLayout
  1
Layout2
 70
     1
 71
     2
 10
0.0
 20
0.0
 11
0.0
 21
0.0
 12
0.0
 22
0.0
 32
0.0
 14
0.0
 24
0.0
 34
0.0
 15
0.0
 25
0.0
 35
0.0
146
0.0
 13
0.0
 23
0.0
 33
0.0
 16
1.0
 26
0.0
 36
0.0
 17
0.0
 27
1.0
 37
0.0
 76
     0
330
23
  0
LAYOUT
  5
22
102
{ACAD_REACTORS
330
1A
102
}
330
1A
100
AcDbPlotSettings
  1

  2
none_device
  4
ANSI_A_(11.00_x_8.50_Inches)
  6

 40
6.35
 41
19.05
 42
6.35000508
 43
19.05000254
 44
279.4
 45
215.9
 46
-0.9842586984
 47
105.9696302435
 48
0.0
 49
0.0
140
0.0
141
0.0
142
0.0837000757
143
1.0
 70
  1696
 72
     0
 73
     0
 74
     0
  7

 75
     0
147
0.0179189148
148
-1300.4909072572
149
0.0
100
AcDbLayout
  1
Model
 70
     1
 71
     0
 10
0.0
 20
0.0
 11
420.0
 21
297.0
 12
0.0
 22
0.0
 32
0.0
 14
-1.8667815557
 24
-34.1873892888
 34
0.0
 15
128.2406276432
 25
18.129273903
 35
0.0
146
0.0
 13
0.0
 23
0.0
 33
0.0
 16
1.0
 26
0.0
 36
0.0
 17
0.0
 27
1.0
 37
0.0
 76
     0
330
1F
331
29
  0
MLINESTYLE
  5
18
102
{ACAD_REACTORS
330
17
102
}
330
17
100
AcDbMlineStyle
  2
Standard
 70
     0
  3

 62
   256
 51
90.0
 52
90.0
 71
     2
 49
0.5
 62
   256
  6
BYLAYER
 49
-0.5
 62
   256
  6
BYLAYER
  0
ACDBPLACEHOLDER
  5
F
102
{ACAD_REACTORS
330
E
102
}
330
E
  0
SCALE
  5
48
102
{ACAD_REACTORS
330
47
102
}
330
47
100
AcDbScale
 70
     0
300
1:1
140
1.0
141
1.0
290
     1
  0
SCALE
  5
49
102
{ACAD_REACTORS
330
47
102
}
330
47
100
AcDbScale
 70
     0
300
1:2
140
1.0
141
2.0
290
     0
  0
SCALE
  5
4A
102
{ACAD_REACTORS
330
47
102
}
330
47
100
AcDbScale
 70
     0
300
1:4
140
1.0
141
4.0
290
     0
  0
SCALE
  5
4B
102
{ACAD_REACTORS
330
47
102
}
330
47
100
AcDbScale
 70
     0
300
1:5
140
1.0
141
5.0
290
     0
  0
SCALE
  5
4C
102
{ACAD_REACTORS
330
47
102
}
330
47
100
AcDbScale
 70
     0
300
1:8
140
1.0
141
8.0
290
     0
  0
SCALE
  5
4D
102
{ACAD_REACTORS
330
47
102
}
330
47
100
AcDbScale
 70
     0
300
1:10
140
1.0
141
10.0
290
     0
  0
SCALE
  5
4E
102
{ACAD_REACTORS
330
47
102
}
330
47
100
AcDbScale
 70
     0
300
1:16
140
1.0
141
16.0
290
     0
  0
SCALE
  5
4F
102
{ACAD_REACTORS
330
47
102
}
330
47
100
AcDbScale
 70
     0
300
1:20
140
1.0
141
20.0
290
     0
  0
SCALE
  5
50
102
{ACAD_REACTORS
330
47
102
}
330
47
100
AcDbScale
 70
     0
300
1:30
140
1.0
141
30.0
290
     0
  0
SCALE
  5
51
102
{ACAD_REACTORS
330
47
102
}
330
47
100
AcDbScale
 70
     0
300
1:40
140
1.0
141
40.0
290
     0
  0
SCALE
  5
52
102
{ACAD_REACTORS
330
47
102
}
330
47
100
AcDbScale
 70
     0
300
1:50
140
1.0
141
50.0
290
     0
  0
SCALE
  5
53
102
{ACAD_REACTORS
330
47
102
}
330
47
100
AcDbScale
 70
     0
300
1:100
140
1.0
141
100.0
290
     0
  0
SCALE
  5
54
102
{ACAD_REACTORS
330
47
102
}
330
47
100
AcDbScale
 70
     0
300
2:1
140
2.0
141
1.0
290
     0
  0
SCALE
  5
55
102
{ACAD_REACTORS
330
47
102
}
330
47
100
AcDbScale
 70
     0
300
4:1
140
4.0
141
1.0
290
     0
  0
SCALE
  5
56
102
{ACAD_REACTORS
330
47
102
}
330
47
100
AcDbScale
 70
     0
300
8:1
140
8.0
141
1.0
290
     0
  0
SCALE
  5
57
102
{ACAD_REACTORS
330
47
102
}
330
47
100
AcDbScale
 70
     0
300
10:1
140
10.0
141
1.0
290
     0
  0
SCALE
  5
58
102
{ACAD_REACTORS
330
47
102
}
330
47
100
AcDbScale
 70
     0
300
100:1
140
100.0
141
1.0
290
     0
  0
SCALE
  5
59
102
{ACAD_REACTORS
330
47
102
}
330
47
100
AcDbScale
 70
     0
300
1/128" = 1'-0"
140
0.0078125
141
12.0
290
     0
  0
SCALE
  5
5A
102
{ACAD_REACTORS
330
47
102
}
330
47
100
AcDbScale
 70
     0
300
1/64" = 1'-0"
140
0.015625
141
12.0
290
     0
  0
SCALE
  5
5B
102
{ACAD_REACTORS
330
47
102
}
330
47
100
AcDbScale
 70
     0
300
1/32" = 1'-0"
140
0.03125
141
12.0
290
     0
  0
SCALE
  5
5C
102
{ACAD_REACTORS
330
47
102
}
330
47
100
AcDbScale
 70
     0
300
1/16" = 1'-0"
140
0.0625
141
12.0
290
     0
  0
SCALE
  5
5D
102
{ACAD_REACTORS
330
47
102
}
330
47
100
AcDbScale
 70
     0
300
3/32" = 1'-0"
140
0.09375
141
12.0
290
     0
  0
SCALE
  5
5E
102
{ACAD_REACTORS
330
47
102
}
330
47
100
AcDbScale
 70
     0
300
1/8" = 1'-0"
140
0.125
141
12.0
290
     0
  0
SCALE
  5
5F
102
{ACAD_REACTORS
330
47
102
}
330
47
100
AcDbScale
 70
     0
300
3/16" = 1'-0"
140
0.1875
141
12.0
290
     0
  0
SCALE
  5
60
102
{ACAD_REACTORS
330
47
102
}
330
47
100
AcDbScale
 70
     0
300
1/4" = 1'-0"
140
0.25
141
12.0
290
     0
  0
SCALE
  5
61
102
{ACAD_REACTORS
330
47
102
}
330
47
100
AcDbScale
 70
     0
300
3/8" = 1'-0"
140
0.375
141
12.0
290
     0
  0
SCALE
  5
62
102
{ACAD_REACTORS
330
47
102
}
330
47
100
AcDbScale
 70
     0
300
1/2" = 1'-0"
140
0.5
141
12.0
290
     0
  0
SCALE
  5
63
102
{ACAD_REACTORS
330
47
102
}
330
47
100
AcDbScale
 70
     0
300
3/4" = 1'-0"
140
0.75
141
12.0
290
     0
  0
SCALE
  5
64
102
{ACAD_REACTORS
330
47
102
}
330
47
100
AcDbScale
 70
     0
300
1" = 1'-0"
140
1.0
141
12.0
290
     0
  0
SCALE
  5
65
102
{ACAD_REACTORS
330
47
102
}
330
47
100
AcDbScale
 70
     0
300
1-1/2" = 1'-0"
140
1.5
141
12.0
290
     0
  0
SCALE
  5
66
102
{ACAD_REACTORS
330
47
102
}
330
47
100
AcDbScale
 70
     0
300
3" = 1'-0"
140
3.0
141
12.0
290
     0
  0
SCALE
  5
67
102
{ACAD_REACTORS
330
47
102
}
330
47
100
AcDbScale
 70
     0
300
6" = 1'-0"
140
6.0
141
12.0
290
     0
  0
SCALE
  5
68
102
{ACAD_REACTORS
330
47
102
}
330
47
100
AcDbScale
 70
     0
300
1'-0" = 1'-0"
140
12.0
141
12.0
290
     0
  0
ENDSEC
  0
EOF
